<svg width="64" height="64" viewBox="0 0 64 64" fill="none" xmlns="http://www.w3.org/2000/svg">
<g clip-path="url(#clip0_1632_169907)">
<path d="M19.5186 22.2969L16.9756 23.1363L19.6094 23.4447L19.5186 22.2969ZM19.392 27.3237L32.4756 28.1695L45.5592 27.3237L32.4756 24.7456L19.392 27.3237ZM45.3721 23.4447L47.9756 23.1363L45.3721 22.4346V23.4447Z" fill="#3C4929"/>
<path d="M36.0342 45.2148L42.8888 46.855L36.016 48.9507L36.0342 45.2148Z" fill="#B7CA9D"/>
<path d="M19.392 13.2933V8.6159L32.4756 2.00195L32.534 2.05154L32.5039 7.98927L32.4756 8.00176L32.4265 8.13852L25.2701 11.0594L25.2045 21.3487L29.0132 20.701L32.4756 20.0005V62L28.5559 60.0193V54.4152L25.1224 53.027V26.7428L19.392 27.3228V22.6463L16.9756 23.1354V14.2699L19.392 13.2933Z" fill="#4B612C"/>
<path d="M29.0133 20.7015L25.1224 21.488V10.9742L29.0133 12.2008V20.7015ZM39.2478 5.42518L45.5575 8.6159V13.2933L47.9756 14.2699V23.1347L45.5575 22.6463V27.3228L42.4767 27.012L39.8271 26.7428V32.0001H45.5592V36.81L42.8955 37.0516V41.9015L36.3937 43.2082V48.8121L42.8807 46.8655L42.8955 51.8095L36.3937 54.4152V60.0193L32.4756 62V20.0005L35.9355 20.6996L39.6389 21.194V11.0582L32.5745 8.30357L32.4756 8.00176V2.00195L39.2478 5.42518Z" fill="#759C3E"/>
<path d="M36.3937 9.58715L32.4756 8.00391L25.1224 10.9755L29.0133 12.202L36.3937 9.58715Z" fill="#3C4929"/>
<path d="M25.1224 10.9755L32.4756 8.00391L34.0226 8.62883L36.3937 9.58715L39.8271 10.9772L39.6436 11.1659L36.1469 12.2667L35.9362 12.202L32.4756 10.9755L29.0133 12.202L25.1224 10.9755Z" fill="#3C4929"/>
<path d="M35.9362 12.2014L39.8271 10.9766V21.4895L35.9362 20.7003V12.2014Z" fill="#4B612C"/>
</g>
<defs>
<clipPath id="clip0_1632_169907">
<rect width="31" height="60" fill="white" transform="translate(16.9756 2)"/>
</clipPath>
</defs>
</svg>
