<svg width="64" height="64" viewBox="0 0 64 64" fill="none" xmlns="http://www.w3.org/2000/svg">
<g clip-path="url(#clip0_1719_242282)">
<g clip-path="url(#clip1_1719_242282)">
<path fill-rule="evenodd" clip-rule="evenodd" d="M-0.170654 0H63.8293V64H-0.170654V0Z" fill="url(#paint0_linear_1719_242282)"/>
<path fill-rule="evenodd" clip-rule="evenodd" d="M23.8293 43.1992C17.6549 43.1992 12.6293 38.1752 12.6293 31.9992C12.6293 25.8232 17.6549 20.7992 23.8293 20.7992C30.0037 20.7992 35.0293 25.8232 35.0293 31.9992C35.0293 38.1752 30.0037 43.1992 23.8293 43.1992ZM46.2293 44.7992C47.9941 44.7992 49.4293 46.2344 49.4293 47.9992C49.4293 49.764 47.9941 51.1992 46.2293 51.1992C44.4645 51.1992 43.0293 49.764 43.0293 47.9992C43.0293 46.2344 44.4645 44.7992 46.2293 44.7992ZM46.2293 12.7992C47.9941 12.7992 49.4293 14.2344 49.4293 15.9992C49.4293 17.764 47.9941 19.1992 46.2293 19.1992C44.4645 19.1992 43.0293 17.764 43.0293 15.9992C43.0293 14.2344 44.4645 12.7992 46.2293 12.7992ZM47.8293 29.5992C49.5941 29.5992 51.0293 31.0344 51.0293 32.7992C51.0293 34.564 49.5941 35.9992 47.8293 35.9992C46.0645 35.9992 44.6293 34.564 44.6293 32.7992C44.6293 31.0344 46.0645 29.5992 47.8293 29.5992ZM36.5189 33.5992H43.1109C43.2986 34.7157 43.8753 35.7297 44.7389 36.4617C45.6025 37.1938 46.6972 37.5968 47.8293 37.5992C50.4757 37.5992 52.6293 35.4456 52.6293 32.7992C52.6293 30.1528 50.4757 27.9992 47.8293 27.9992C46.6972 28.0017 45.6025 28.4046 44.7389 29.1367C43.8753 29.8688 43.2986 30.8828 43.1109 31.9992H36.6293C36.6293 29.6168 35.9637 27.3912 34.8245 25.4792L42.5477 19.0424C42.9933 19.5892 43.5547 20.0303 44.1913 20.3341C44.8279 20.6379 45.5239 20.7967 46.2293 20.7992C48.8757 20.7992 51.0293 18.6456 51.0293 15.9992C51.0293 13.3528 48.8757 11.1992 46.2293 11.1992C43.5829 11.1992 41.4293 13.3528 41.4293 15.9992C41.4293 16.5768 41.5477 17.1224 41.7349 17.6344L33.9189 24.1496C32.7258 22.6099 31.1964 21.3634 29.4477 20.5054C27.6989 19.6474 25.7772 19.2006 23.8293 19.1992C16.7717 19.1992 11.0293 24.9416 11.0293 31.9992C11.0293 39.0568 16.7717 44.7992 23.8293 44.7992C25.7772 44.7978 27.6989 44.351 29.4477 43.493C31.1964 42.635 32.7258 41.3885 33.9189 39.8488L41.7349 46.364C41.5477 46.876 41.4293 47.4216 41.4293 47.9992C41.4293 50.6456 43.5829 52.7992 46.2293 52.7992C48.8757 52.7992 51.0293 50.6456 51.0293 47.9992C51.0293 45.3528 48.8757 43.1992 46.2293 43.1992C44.7429 43.1992 43.4293 43.892 42.5477 44.956L34.8245 38.5192C35.7233 37.014 36.3002 35.3387 36.5189 33.5992Z" fill="white"/>
</g>
</g>
<defs>
<linearGradient id="paint0_linear_1719_242282" x1="-0.170654" y1="6400" x2="6399.83" y2="0" gradientUnits="userSpaceOnUse">
<stop stop-color="#4D27A8"/>
<stop offset="1" stop-color="#A166FF"/>
</linearGradient>
<clipPath id="clip0_1719_242282">
<rect width="64" height="64" rx="6" fill="white"/>
</clipPath>
<clipPath id="clip1_1719_242282">
<rect width="64" height="64" fill="white" transform="translate(-0.170654)"/>
</clipPath>
</defs>
</svg>
