<svg width="32" height="32" viewBox="0 0 32 32" fill="none" xmlns="http://www.w3.org/2000/svg">
<g clip-path="url(#clip0_1535_845902)">
<path d="M9.91787 15.591C9.91787 15.9498 9.95505 16.2407 10.0199 16.454C10.1023 16.694 10.2014 16.9273 10.3165 17.152C10.3629 17.2296 10.3814 17.3071 10.3814 17.3751C10.3814 17.472 10.3258 17.5689 10.2053 17.6659L9.62124 18.0731C9.53779 18.1314 9.45433 18.1604 9.38007 18.1604C9.28743 18.1604 9.19468 18.1119 9.10193 18.0246C8.97702 17.8842 8.86527 17.7317 8.76823 17.5689C8.67548 17.4042 8.58273 17.2199 8.48079 16.9969C7.7576 17.8889 6.84891 18.3349 5.75494 18.3349C4.97619 18.3349 4.35494 18.1022 3.9006 17.6369C3.44637 17.1714 3.2146 16.5509 3.2146 15.7753C3.2146 14.9512 3.49274 14.2822 4.05832 13.778C4.62379 13.2738 5.37487 13.0217 6.32982 13.0217C6.64504 13.0217 6.96955 13.0507 7.31255 13.0992C7.65566 13.1477 8.00796 13.2253 8.37885 13.3126V12.6048C8.37885 11.8678 8.23043 11.354 7.94299 11.0535C7.64637 10.7529 7.14565 10.6074 6.43176 10.6074C6.10724 10.6074 5.77354 10.6463 5.43043 10.7335C5.08743 10.8207 4.75362 10.9274 4.4291 11.0632C4.28079 11.131 4.16955 11.1698 4.10458 11.1892C4.03972 11.2087 3.99335 11.2183 3.95627 11.2183C3.82644 11.2183 3.76158 11.1213 3.76158 10.9177V10.4426C3.76158 10.2875 3.78018 10.1711 3.82644 10.1033C3.87282 10.0354 3.95627 9.96754 4.0861 9.89972C4.41062 9.72517 4.79999 9.57968 5.25423 9.46336C5.70868 9.33731 6.1908 9.27921 6.70071 9.27921C7.80408 9.27921 8.61073 9.54091 9.12993 10.0645C9.63984 10.5881 9.89949 11.3831 9.89949 12.4497V15.591H9.91808H9.91787ZM6.15362 17.0648C6.45965 17.0648 6.77487 17.0067 7.10857 16.8902C7.44238 16.7739 7.73912 16.5606 7.98937 16.2697C8.13779 16.0856 8.24902 15.882 8.30458 15.6492C8.36026 15.4166 8.39734 15.1353 8.39734 14.8057V14.3985C8.11617 14.3269 7.83138 14.2719 7.54432 14.2337C7.25526 14.1953 6.9642 14.1758 6.67282 14.1754C6.05157 14.1754 5.59733 14.3015 5.29141 14.5633C4.98538 14.8251 4.83707 15.1935 4.83707 15.6783C4.83707 16.1339 4.9483 16.4733 5.18007 16.7061C5.40265 16.9484 5.72716 17.0648 6.15362 17.0648ZM13.5987 18.1119C13.4318 18.1119 13.3205 18.0829 13.2464 18.0149C13.1722 17.9568 13.1072 17.821 13.0517 17.6369L10.8729 10.1421C10.8171 9.9481 10.7894 9.82205 10.7894 9.75423C10.7894 9.59913 10.8635 9.51174 11.0119 9.51174H11.9205C12.0966 9.51174 12.2173 9.54091 12.2821 9.60874C12.3563 9.66696 12.4119 9.80272 12.4675 9.98687L14.0251 16.4055L15.4715 9.98687C15.5179 9.793 15.5735 9.66696 15.6476 9.60874C15.7219 9.55063 15.8517 9.51186 16.0186 9.51186H16.7603C16.9364 9.51186 17.057 9.54091 17.131 9.60874C17.2053 9.66696 17.2702 9.80272 17.3072 9.98687L18.7722 16.483L20.3761 9.98687C20.4316 9.793 20.4966 9.66696 20.5615 9.60874C20.6356 9.55063 20.7562 9.51186 20.9231 9.51186H21.7853C21.9337 9.51186 22.0172 9.58941 22.0172 9.75423C22.0172 9.80272 22.0079 9.85122 21.9986 9.90932C21.9893 9.96754 21.9708 10.0451 21.9337 10.1518L19.6992 17.6465C19.6436 17.8405 19.5787 17.9665 19.5045 18.0246C19.4303 18.0829 19.3098 18.1216 19.1523 18.1216H18.3549C18.1787 18.1216 18.0582 18.0926 17.9839 18.0246C17.9098 17.9568 17.8449 17.8308 17.8079 17.6369L16.3707 11.3831L14.9429 17.6271C14.8966 17.821 14.8409 17.9471 14.7668 18.0149C14.6926 18.0829 14.5628 18.1119 14.396 18.1119H13.5986H13.5987ZM25.5126 18.3737C25.0304 18.3737 24.5483 18.3155 24.0848 18.1992C23.6211 18.0829 23.2596 17.9567 23.0186 17.8114C22.8702 17.724 22.7681 17.6272 22.7311 17.5399C22.695 17.4543 22.6761 17.3619 22.6755 17.2684V16.7739C22.6755 16.5703 22.7496 16.4733 22.8888 16.4733C22.9455 16.4735 23.0019 16.4834 23.0557 16.5025C23.1112 16.5219 23.1947 16.5606 23.2874 16.5994C23.6149 16.75 23.9568 16.8637 24.3072 16.9387C24.6704 17.0158 25.04 17.0548 25.4106 17.055C25.9947 17.055 26.449 16.9484 26.7642 16.7351C27.0795 16.5218 27.2464 16.2116 27.2464 15.814C27.2464 15.5426 27.1629 15.3196 26.996 15.1353C26.8291 14.9512 26.5139 14.7863 26.0597 14.6311L24.7152 14.1949C24.0384 13.9718 23.5378 13.6422 23.2318 13.2058C22.9258 12.7792 22.7682 12.3042 22.7682 11.8C22.7682 11.3928 22.8517 11.034 23.0186 10.7237C23.1854 10.4135 23.408 10.1421 23.6861 9.92877C23.9642 9.70573 24.2795 9.54091 24.6504 9.42459C25.0211 9.30826 25.4105 9.25977 25.8185 9.25977C26.0225 9.25977 26.2357 9.26949 26.4397 9.29854C26.653 9.32759 26.8477 9.36637 27.0424 9.40514C27.2278 9.45364 27.404 9.50213 27.5709 9.56035C27.7378 9.61846 27.8675 9.67668 27.9603 9.73478C28.0901 9.81245 28.1827 9.88999 28.2384 9.97727C28.2941 10.0548 28.3219 10.1614 28.3219 10.2972V10.7529C28.3219 10.9565 28.2477 11.0632 28.1086 11.0632C28.0344 11.0632 27.9139 11.0243 27.7564 10.9467C27.2278 10.6947 26.6344 10.5686 25.9762 10.5686C25.4477 10.5686 25.0304 10.6559 24.743 10.8401C24.4557 11.0243 24.3072 11.3056 24.3072 11.703C24.3072 11.9746 24.4 12.2072 24.5854 12.3915C24.7709 12.5756 25.1139 12.7599 25.6053 12.9247L26.9219 13.3611C27.5894 13.5841 28.0715 13.8943 28.3589 14.2918C28.6464 14.6893 28.7855 15.145 28.7855 15.6492C28.7855 16.0661 28.7019 16.4443 28.5443 16.7739C28.3775 17.1035 28.1549 17.3944 27.8675 17.6272C27.5801 17.8695 27.2371 18.0441 26.8384 18.1701C26.4211 18.3059 25.9854 18.3737 25.5126 18.3737Z" fill="white"/>
<path d="M27.2649 23.0849C24.2146 25.441 19.7828 26.6917 15.9723 26.6917C10.6318 26.6917 5.81996 24.6265 2.18554 21.1942C1.8981 20.9228 2.15765 20.5544 2.50065 20.7676C6.4318 23.1528 11.2808 24.5974 16.2968 24.5974C19.6808 24.5974 23.3987 23.8606 26.82 22.348C27.3299 22.1056 27.7656 22.6971 27.2649 23.0849ZM28.5352 21.5723C28.1458 21.0488 25.9576 21.3202 24.9656 21.4463C24.6689 21.4852 24.6225 21.2136 24.8915 21.01C26.6345 19.7301 29.4994 20.0987 29.8331 20.5252C30.1669 20.9615 29.7404 23.9575 28.1086 25.3925C27.8584 25.6155 27.6173 25.4992 27.7285 25.2083C28.0993 24.2483 28.9245 22.0862 28.5352 21.5723Z" fill="#FF9900"/>
</g>
<defs>
<clipPath id="clip0_1535_845902">
<rect width="28" height="17.5" fill="white" transform="translate(2 9.25)"/>
</clipPath>
</defs>
</svg>
