<svg xmlns="http://www.w3.org/2000/svg" xml:space="preserve" viewBox="-393 31 500 500">
  <path fill="#ea4335" d="M-93.9 215h11.1l31.7-31.7 1.6-13.5a142.7 142.7 0 0 0-232 69.5c3.5-1.4 7.5-1.7 11.1-.7l63.5-10.5s3.2-5.3 4.9-5a79.1 79.1 0 0 1 108.3-8.2l-.2.1z"/>
  <path fill="#4285f4" d="M-5.8 239.4c-7.3-26.9-22.3-51-43.1-69.5l-44.5 44.5a79.4 79.4 0 0 1 29.1 62.8v7.9a39.6 39.6 0 1 1 0 79.2h-79.3l-7.9 8V420l7.9 7.9h79.3A103.2 103.2 0 0 0-5.8 239.4z"/>
  <path fill="#34a853" d="M-223 427.4h79.3V364H-223c-5.6 0-11.2-1.2-16.4-3.6l-11.1 3.5-32 31.7-2.8 11.1a103 103 0 0 0 62.3 20.7z"/>
  <path fill="#fbbc05" d="M-223 221.6a103.2 103.2 0 0 0-62.3 184.8l46-46a39.7 39.7 0 1 1 52.4-52.4l46-46a102.7 102.7 0 0 0-82.1-40.4z"/>
</svg>