<svg width="512" height="512" viewBox="0 0 512 512" fill="none" xmlns="http://www.w3.org/2000/svg">
<g clip-path="url(#clip0_2742_24048)">
<path d="M347.777 0.0177071C328.71 23.2602 298.438 106.08 296.595 121.699C296.175 133.257 299.991 156.892 298.257 160.785C296.478 164.775 285.602 137.425 280.414 145.139C250.196 190.069 253.953 188.988 241.879 222.737C237.34 235.427 240.83 277.118 238.005 281.528C234.857 286.441 228.207 251.085 221.173 258.687C192.479 289.699 180.915 309.084 165.936 334.378C157.63 348.406 160.541 392.073 157.266 395.397C154.045 398.665 147.729 350.077 138.363 360.011C117.295 382.362 103.608 393.25 91.5097 407.621C78.6548 422.889 89.5746 451.106 78.9785 495.123L79.3366 495.669C270.863 371.257 330.396 181.202 345.456 47.5862C343.773 205.685 272.725 400.681 84.975 504.226L85.2538 504.65C135.31 499.256 140.419 530.512 195.456 494.056C333.429 374.667 397.885 186.687 347.775 0L347.777 0.0177071Z" fill="url(#paint0_linear_2742_24048)"/>
<path d="M256.003 55.5342C136.325 55.5342 39.3066 152.552 39.3066 272.231C39.3497 322.786 57.0672 371.734 89.3923 410.605C90.0162 409.561 90.7186 408.567 91.5137 407.622C103.612 393.253 117.3 382.363 138.367 360.012C147.733 350.077 154.049 398.665 157.27 395.398C160.545 392.075 157.634 348.409 165.94 334.38C180.918 309.086 192.483 289.7 221.177 258.688C228.211 251.086 234.861 286.443 238.009 281.529C240.834 277.122 237.343 235.43 241.883 222.739C253.956 188.99 250.2 190.07 280.417 145.141C285.605 137.426 296.482 164.777 298.26 160.787C299.994 156.896 296.178 133.26 296.599 121.701C297.518 113.912 305.51 89.4064 315.654 63.9147C296.258 58.3574 276.18 55.5359 256.006 55.5325L256.003 55.5342ZM362.693 83.6176C376.459 235.942 317.126 382.109 207.399 483.378C223.34 487.052 239.647 488.909 256.006 488.914C375.684 488.914 472.702 391.896 472.702 272.217C472.702 194.118 430.674 122.059 362.693 83.6067V83.6176Z" fill="url(#paint1_linear_2742_24048)"/>
</g>
<defs>
<linearGradient id="paint0_linear_2742_24048" x1="78.9812" y1="358.175" x2="364.667" y2="160.953" gradientUnits="userSpaceOnUse">
<stop stop-color="#21FACF"/>
<stop offset="1" stop-color="#0970EF"/>
</linearGradient>
<linearGradient id="paint1_linear_2742_24048" x1="150.159" y1="465.325" x2="471.985" y2="93.4354" gradientUnits="userSpaceOnUse">
<stop stop-color="#72004E"/>
<stop offset="1" stop-color="#0015B1"/>
</linearGradient>
<clipPath id="clip0_2742_24048">
<rect width="512" height="512" fill="white"/>
</clipPath>
</defs>
</svg>
