<svg width="64" height="64" viewBox="0 0 64 64" fill="none" xmlns="http://www.w3.org/2000/svg">
<g clip-path="url(#clip0_1723_242622)">
<path d="M32.5162 32.0413V2.08008L57.3836 14.4845L57.4632 32.0389H54.1998L54.2794 20.4346L39.921 16.3006V31.9346L32.5162 32.0413Z" fill="#F58536"/>
<path d="M32.5162 2V32.0145H19.2986V8.72351L32.5162 2ZM7.54273 31.9879V14.3778L14.6556 10.9639V31.9879H7.46313" fill="#9D5024"/>
<path d="M14.6556 10.9648V31.9888L19.3011 32.0155V12.165L14.6556 10.9648Z" fill="#F58536"/>
<path d="M45.1766 21.7138V32.0646H54.2529L54.2794 20.4336L45.1766 21.7138Z" fill="#9D5024"/>
<path d="M39.9209 16.3008L54.2793 20.4348L45.2031 21.715L39.9209 20.5681V16.3008Z" fill="#6B3918"/>
<path d="M7.67538 37.2422L14.6556 38.4691V53.1429L7.54272 49.5157L7.67538 37.2422ZM19.219 39.1358V55.41L32.4366 62.0001V41.1119L19.219 39.1358Z" fill="#9D5024"/>
<path d="M57.2509 37.2422V49.6466L32.4366 61.9977V41.1095L57.2509 37.2422Z" fill="#F58536"/>
<path d="M40.2659 36.3359V37.5361L19.2191 39.1631V51.97L14.6532 53.1435L14.6267 38.2029L40.2659 36.3359Z" fill="#F58536"/>
<path d="M7.67542 37.2423L34.6122 35.7754L40.2393 36.3088L14.576 38.5492L7.67542 37.2423ZM19.2191 39.1359L44.3517 36.6022L57.1182 37.269L32.4366 41.1096L19.2191 39.1359Z" fill="#FABE92"/>
</g>
<defs>
<clipPath id="clip0_1723_242622">
<rect width="50" height="60" fill="white" transform="translate(7.46313 2)"/>
</clipPath>
</defs>
</svg>
