<svg width="132" height="23" viewBox="0 0 132 23" fill="none" xmlns="http://www.w3.org/2000/svg">
<path d="M28.3735 18.8309V17.5992L28.3473 17.6124C28.0664 17.7461 27.7584 17.8241 27.4462 17.8374C27.1214 17.8631 26.7999 17.7685 26.5409 17.5734C26.3561 17.4348 26.216 17.2406 26.1452 17.0248C26.0658 16.7824 26.0574 16.5276 26.119 16.2853C26.1764 16.0346 26.3164 15.8138 26.5189 15.6545C26.6995 15.5076 26.9189 15.4171 27.1517 15.3864C27.5652 15.3432 27.9778 15.4212 28.3473 15.6072L28.3735 15.6204V14.3837L28.3161 14.3705C27.9466 14.2534 27.5601 14.2061 27.1779 14.2236C26.8261 14.2319 26.4793 14.3099 26.1629 14.4526C25.838 14.5995 25.552 14.8112 25.3326 15.0834C24.6298 15.9566 24.6078 17.1842 25.2845 18.0747C25.6187 18.4939 26.0844 18.7927 26.6075 18.913C27.161 19.0467 27.7415 19.0251 28.2815 18.8566L28.3735 18.8309ZM16.0033 18.8309V17.5992L15.9771 17.6124C15.6962 17.7461 15.3924 17.8241 15.076 17.8374C14.7512 17.8631 14.4297 17.7685 14.1707 17.5734C13.9859 17.4348 13.85 17.2406 13.7749 17.0248C13.6956 16.7874 13.6872 16.5276 13.7488 16.2853C13.8062 16.0346 13.9462 15.8138 14.1487 15.6545C14.3293 15.5076 14.5487 15.4171 14.7815 15.3864C15.195 15.3432 15.6076 15.4212 15.9771 15.6072L16.0033 15.6204V14.3837L15.9459 14.3705C15.5763 14.2534 15.1941 14.2061 14.8077 14.2236C14.4558 14.2319 14.1133 14.3099 13.7927 14.4526C13.472 14.5995 13.186 14.8112 12.9624 15.0834C12.2596 15.9566 12.2418 17.1842 12.9143 18.0747C13.2442 18.4939 13.7142 18.7927 14.2373 18.913C14.7908 19.0467 15.3671 19.0251 15.9113 18.8566L16.0033 18.8309ZM20.4195 17.8108L20.4152 18.8699L20.4903 18.8832C20.7409 18.9263 20.9873 18.957 21.2371 18.9786C21.4564 18.996 21.6809 19.0002 21.9003 18.9919C22.1112 18.9745 22.3179 18.9354 22.5196 18.8749C22.7567 18.8101 22.9718 18.6931 23.1608 18.5379C23.3279 18.3951 23.4595 18.2133 23.5346 18.0108C23.6704 17.6647 23.6662 17.2887 23.5262 16.9476C23.4561 16.77 23.3414 16.6106 23.192 16.4894C23.0511 16.3641 22.8798 16.2645 22.7001 16.2081L21.8868 15.9101C21.7897 15.8711 21.7113 15.7931 21.6674 15.7026C21.6319 15.6246 21.6319 15.5341 21.6758 15.4602C21.7155 15.3914 21.7771 15.3391 21.8471 15.3001C21.9391 15.2569 22.0361 15.2312 22.1373 15.2179C22.3086 15.1963 22.4841 15.1963 22.6562 15.2262C22.8587 15.2478 23.0562 15.2826 23.2536 15.3299L23.2975 15.3382V14.3613L23.2182 14.3439C23.0157 14.3007 22.814 14.2617 22.6073 14.2402C22.3432 14.2053 22.0715 14.2011 21.8032 14.236C21.4691 14.2659 21.1485 14.392 20.8802 14.5995C20.6996 14.7423 20.5637 14.9241 20.4844 15.1357C20.3705 15.4553 20.3705 15.8105 20.4844 16.1301C20.546 16.2944 20.6431 16.4372 20.7705 16.5534C20.8802 16.6571 21.0033 16.7434 21.14 16.8131C21.3155 16.9086 21.5045 16.9775 21.6978 17.0289C21.7593 17.0505 21.8252 17.068 21.8868 17.0895L21.9838 17.1244L22.0099 17.1377C22.107 17.1676 22.1947 17.224 22.2648 17.2887C22.3179 17.336 22.3567 17.3925 22.3787 17.4572C22.3964 17.5178 22.3964 17.5784 22.3787 17.6348C22.3483 17.7303 22.2816 17.8075 22.1939 17.8556C22.0968 17.9029 21.9914 17.9378 21.8817 17.9511C21.7231 17.9768 21.5653 17.981 21.4024 17.9727C21.1915 17.9594 20.9848 17.9295 20.7738 17.8905C20.6684 17.8689 20.5587 17.8432 20.4532 17.8166L20.4195 17.8108ZM17.6334 18.9089H18.8155V14.3007H17.6334V18.9089ZM31.3131 15.6619C31.8447 15.2386 32.6184 15.3158 33.0487 15.8346C33.479 16.3533 33.4006 17.1186 32.8732 17.5419L32.8513 17.5552C31.5722 18.5238 30.0737 16.6729 31.3131 15.6619ZM29.5995 16.6048C29.6256 18.1436 31.076 19.2724 32.6007 18.9396C34.7717 18.5329 35.2855 15.7018 33.3871 14.5821C31.7519 13.5878 29.6383 14.7157 29.5986 16.6056L29.5995 16.6048ZM35.8314 10.5915C35.8618 11.326 36.9696 11.326 37 10.5915V9.31661C36.9696 8.58206 35.8618 8.58206 35.8314 9.31661V10.5915ZM32.6319 10.5915C32.6851 11.3045 33.7482 11.3045 33.8005 10.5915V7.72965C33.7566 7.00756 32.68 7.00756 32.6319 7.72965V10.5915ZM29.3843 11.746C29.4417 12.459 30.5006 12.459 30.5529 11.746V5.55091C30.5225 4.81636 29.4189 4.81636 29.3843 5.55091V11.746ZM26.1941 10.5915C26.238 11.3136 27.3146 11.3136 27.3627 10.5915V7.72965C27.3272 6.99511 26.2245 6.99511 26.1941 7.72965V10.5915ZM22.9288 10.5915C22.9988 11.2879 24.0316 11.2879 24.0974 10.5915V9.31661C24.067 8.58206 22.9634 8.58206 22.9288 9.31661V10.5915ZM19.7031 10.5915C19.7335 11.326 20.8371 11.326 20.8717 10.5915V7.72965C20.8363 6.99511 19.7335 6.99511 19.7031 7.72965V10.5915ZM16.4555 11.746C16.4859 12.4806 17.5895 12.4806 17.6241 11.746V5.55091C17.5887 4.81636 16.4859 4.81636 16.4555 5.55091V11.746ZM13.2341 10.5915C13.2999 11.2962 14.3419 11.2962 14.4027 10.5915V7.72965C14.3723 6.99511 13.2687 6.99511 13.2383 7.72965V10.5915H13.2341ZM10 10.5915C10.0532 11.3045 11.1121 11.3045 11.1686 10.5915V9.31661C11.1382 8.58206 10.0304 8.58206 10 9.31661V10.5915Z" fill="black"/>
<path d="M43.9162 18V16.9027L49.6531 8.50781H43.8683V7.09091H51.6665V8.18821L45.9297 16.5831H51.7145V18H43.9162ZM56.877 18.1651C56.0709 18.1651 55.3767 17.9929 54.7943 17.6484C54.2154 17.3004 53.768 16.8121 53.452 16.1836C53.1395 15.5515 52.9832 14.8111 52.9832 13.9624C52.9832 13.1243 53.1395 12.3857 53.452 11.7464C53.768 11.1072 54.2083 10.6083 54.773 10.2496C55.3412 9.89098 56.0052 9.71165 56.7652 9.71165C57.2268 9.71165 57.6743 9.788 58.1075 9.9407C58.5407 10.0934 58.9296 10.3331 59.274 10.6598C59.6185 10.9865 59.8902 11.4109 60.089 11.9329C60.2879 12.4513 60.3873 13.0817 60.3873 13.8239V14.3885H53.8834V13.1953H58.8266C58.8266 12.7763 58.7414 12.4052 58.5709 12.082C58.4005 11.7553 58.1608 11.4979 57.8518 11.3097C57.5464 11.1214 57.1877 11.0273 56.7758 11.0273C56.3284 11.0273 55.9377 11.1374 55.6039 11.3576C55.2737 11.5742 55.018 11.8583 54.8369 12.2099C54.6593 12.5579 54.5706 12.9361 54.5706 13.3445V14.2766C54.5706 14.8235 54.6664 15.2887 54.8582 15.6722C55.0535 16.0558 55.3252 16.3487 55.6732 16.5511C56.0212 16.75 56.4278 16.8494 56.893 16.8494C57.1949 16.8494 57.4701 16.8068 57.7186 16.7216C57.9672 16.6328 58.1821 16.5014 58.3632 16.3274C58.5443 16.1534 58.6828 15.9386 58.7787 15.6829L60.2861 15.9545C60.1654 16.3984 59.9488 16.7873 59.6363 17.1211C59.3273 17.4513 58.9385 17.7088 58.4697 17.8935C58.0045 18.0746 57.4736 18.1651 56.877 18.1651ZM61.8545 18V9.81818H63.3939V11.1179H63.4791C63.6282 10.6776 63.891 10.3313 64.2675 10.0792C64.6474 9.82351 65.0771 9.69567 65.5565 9.69567C65.6559 9.69567 65.7731 9.69922 65.9081 9.70632C66.0466 9.71342 66.1549 9.7223 66.233 9.73295V11.2564C66.1691 11.2386 66.0555 11.2191 65.8921 11.1978C65.7287 11.1729 65.5654 11.1605 65.402 11.1605C65.0256 11.1605 64.69 11.2404 64.3953 11.4002C64.1041 11.5565 63.8733 11.7749 63.7028 12.0554C63.5324 12.3324 63.4471 12.6484 63.4471 13.0036V18H61.8545ZM70.4647 18.1651C69.6977 18.1651 69.0283 17.9893 68.4565 17.6378C67.8848 17.2862 67.4409 16.7944 67.1249 16.1623C66.8088 15.5302 66.6508 14.7915 66.6508 13.9464C66.6508 13.0977 66.8088 12.3555 67.1249 11.7198C67.4409 11.0842 67.8848 10.5906 68.4565 10.239C69.0283 9.88743 69.6977 9.71165 70.4647 9.71165C71.2317 9.71165 71.9011 9.88743 72.4729 10.239C73.0446 10.5906 73.4885 11.0842 73.8045 11.7198C74.1206 12.3555 74.2786 13.0977 74.2786 13.9464C74.2786 14.7915 74.1206 15.5302 73.8045 16.1623C73.4885 16.7944 73.0446 17.2862 72.4729 17.6378C71.9011 17.9893 71.2317 18.1651 70.4647 18.1651ZM70.47 16.8281C70.9672 16.8281 71.3791 16.6967 71.7058 16.4339C72.0325 16.1712 72.274 15.8214 72.4303 15.3846C72.5901 14.9478 72.67 14.4666 72.67 13.9411C72.67 13.419 72.5901 12.9396 72.4303 12.5028C72.274 12.0625 72.0325 11.7092 71.7058 11.4428C71.3791 11.1765 70.9672 11.0433 70.47 11.0433C69.9693 11.0433 69.5538 11.1765 69.2236 11.4428C68.8969 11.7092 68.6536 12.0625 68.4938 12.5028C68.3376 12.9396 68.2594 13.419 68.2594 13.9411C68.2594 14.4666 68.3376 14.9478 68.4938 15.3846C68.6536 15.8214 68.8969 16.1712 69.2236 16.4339C69.5538 16.6967 69.9693 16.8281 70.47 16.8281ZM79.016 8.50781V7.09091H87.4588V8.50781H84.055V18H82.4144V8.50781H79.016ZM91.1565 18.1651C90.3895 18.1651 89.7201 17.9893 89.1483 17.6378C88.5766 17.2862 88.1327 16.7944 87.8167 16.1623C87.5006 15.5302 87.3426 14.7915 87.3426 13.9464C87.3426 13.0977 87.5006 12.3555 87.8167 11.7198C88.1327 11.0842 88.5766 10.5906 89.1483 10.239C89.7201 9.88743 90.3895 9.71165 91.1565 9.71165C91.9235 9.71165 92.5929 9.88743 93.1647 10.239C93.7364 10.5906 94.1803 11.0842 94.4963 11.7198C94.8124 12.3555 94.9704 13.0977 94.9704 13.9464C94.9704 14.7915 94.8124 15.5302 94.4963 16.1623C94.1803 16.7944 93.7364 17.2862 93.1647 17.6378C92.5929 17.9893 91.9235 18.1651 91.1565 18.1651ZM91.1618 16.8281C91.659 16.8281 92.0709 16.6967 92.3976 16.4339C92.7243 16.1712 92.9658 15.8214 93.1221 15.3846C93.2819 14.9478 93.3618 14.4666 93.3618 13.9411C93.3618 13.419 93.2819 12.9396 93.1221 12.5028C92.9658 12.0625 92.7243 11.7092 92.3976 11.4428C92.0709 11.1765 91.659 11.0433 91.1618 11.0433C90.6611 11.0433 90.2456 11.1765 89.9154 11.4428C89.5887 11.7092 89.3454 12.0625 89.1856 12.5028C89.0294 12.9396 88.9512 13.419 88.9512 13.9411C88.9512 14.4666 89.0294 14.9478 89.1856 15.3846C89.3454 15.8214 89.5887 16.1712 89.9154 16.4339C90.2456 16.6967 90.6611 16.8281 91.1618 16.8281ZM101.631 14.6069V9.81818H103.229V18H101.663V16.5831H101.578C101.39 17.0199 101.088 17.3839 100.672 17.6751C100.26 17.9627 99.7472 18.1065 99.1329 18.1065C98.6073 18.1065 98.1421 17.9911 97.7373 17.7603C97.336 17.5259 97.0199 17.1797 96.7891 16.7216C96.5618 16.2635 96.4482 15.6971 96.4482 15.0224V9.81818H98.0409V14.8306C98.0409 15.3881 98.1954 15.832 98.5043 16.1623C98.8133 16.4925 99.2145 16.6577 99.7082 16.6577C100.006 16.6577 100.303 16.5831 100.598 16.4339C100.896 16.2848 101.143 16.0593 101.338 15.7575C101.537 15.4556 101.635 15.0721 101.631 14.6069ZM108.515 18.1651C107.724 18.1651 107.042 17.9858 106.47 17.6271C105.902 17.2649 105.465 16.766 105.16 16.1303C104.854 15.4947 104.702 14.7667 104.702 13.9464C104.702 13.1154 104.858 12.3821 105.17 11.7464C105.483 11.1072 105.923 10.6083 106.491 10.2496C107.06 9.89098 107.729 9.71165 108.5 9.71165C109.121 9.71165 109.675 9.82706 110.161 10.0579C110.648 10.2852 111.04 10.6048 111.339 11.0167C111.64 11.4286 111.82 11.9098 111.877 12.4602H110.327C110.241 12.0767 110.046 11.7464 109.741 11.4695C109.439 11.1925 109.034 11.054 108.526 11.054C108.082 11.054 107.693 11.1712 107.36 11.4055C107.029 11.6364 106.772 11.9666 106.587 12.3963C106.403 12.8224 106.31 13.3267 106.31 13.9091C106.31 14.5057 106.401 15.0206 106.582 15.4538C106.763 15.8871 107.019 16.2227 107.349 16.4606C107.683 16.6985 108.075 16.8175 108.526 16.8175C108.828 16.8175 109.101 16.7624 109.346 16.6523C109.595 16.5387 109.803 16.3771 109.97 16.1676C110.14 15.9581 110.259 15.706 110.327 15.4112H111.877C111.82 15.9403 111.648 16.4126 111.36 16.8281C111.072 17.2436 110.687 17.5703 110.204 17.8082C109.725 18.0462 109.162 18.1651 108.515 18.1651ZM114.873 13.142V18H113.28V7.09091H114.851V11.1499H114.952C115.144 10.7095 115.437 10.3597 115.831 10.1005C116.226 9.84126 116.74 9.71165 117.376 9.71165C117.937 9.71165 118.427 9.82706 118.846 10.0579C119.269 10.2887 119.596 10.6332 119.826 11.0913C120.061 11.5458 120.178 12.114 120.178 12.7958V18H118.585V12.9876C118.585 12.3874 118.431 11.9222 118.122 11.592C117.813 11.2582 117.383 11.0913 116.833 11.0913C116.456 11.0913 116.119 11.1712 115.821 11.331C115.526 11.4908 115.293 11.7251 115.123 12.0341C114.956 12.3395 114.873 12.7088 114.873 13.142Z" fill="black"/>
</svg>
