<svg width="32" height="32" viewBox="0 0 32 32" fill="none" xmlns="http://www.w3.org/2000/svg">
<path d="M21.776 24.2282V22.7442L21.745 22.7602C21.412 22.9212 21.047 23.0152 20.677 23.0312C20.292 23.0622 19.911 22.9482 19.604 22.7132C19.385 22.5462 19.219 22.3122 19.135 22.0522C19.041 21.7602 19.031 21.4532 19.104 21.1612C19.172 20.8592 19.338 20.5932 19.578 20.4012C19.792 20.2242 20.052 20.1152 20.328 20.0782C20.818 20.0262 21.307 20.1202 21.745 20.3442L21.776 20.3602V18.8702L21.708 18.8542C21.27 18.7132 20.812 18.6562 20.359 18.6772C19.942 18.6872 19.531 18.7812 19.156 18.9532C18.771 19.1302 18.432 19.3852 18.172 19.7132C17.339 20.7652 17.313 22.2442 18.115 23.3172C18.511 23.8222 19.063 24.1822 19.683 24.3272C20.339 24.4882 21.027 24.4622 21.667 24.2592L21.776 24.2282ZM7.115 24.2282V22.7442L7.084 22.7602C6.751 22.9212 6.391 23.0152 6.016 23.0312C5.631 23.0622 5.25 22.9482 4.943 22.7132C4.724 22.5462 4.563 22.3122 4.474 22.0522C4.38 21.7662 4.37 21.4532 4.443 21.1612C4.511 20.8592 4.677 20.5932 4.917 20.4012C5.131 20.2242 5.391 20.1152 5.667 20.0782C6.157 20.0262 6.646 20.1202 7.084 20.3442L7.115 20.3602V18.8702L7.047 18.8542C6.609 18.7132 6.156 18.6562 5.698 18.6772C5.281 18.6872 4.875 18.7812 4.495 18.9532C4.115 19.1302 3.776 19.3852 3.511 19.7132C2.678 20.7652 2.657 22.2442 3.454 23.3172C3.845 23.8222 4.402 24.1822 5.022 24.3272C5.678 24.4882 6.361 24.4622 7.006 24.2592L7.115 24.2282ZM12.349 22.9992L12.344 24.2752L12.433 24.2912C12.73 24.3432 13.022 24.3802 13.318 24.4062C13.578 24.4272 13.844 24.4322 14.104 24.4222C14.354 24.4012 14.599 24.3542 14.838 24.2812C15.119 24.2032 15.374 24.0622 15.598 23.8752C15.796 23.7032 15.952 23.4842 16.041 23.2402C16.202 22.8232 16.197 22.3702 16.031 21.9592C15.948 21.7452 15.812 21.5532 15.635 21.4072C15.468 21.2562 15.265 21.1362 15.052 21.0682L14.088 20.7092C13.973 20.6622 13.88 20.5682 13.828 20.4592C13.786 20.3652 13.786 20.2562 13.838 20.1672C13.885 20.0842 13.958 20.0212 14.041 19.9742C14.15 19.9222 14.265 19.8912 14.385 19.8752C14.588 19.8492 14.796 19.8492 15 19.8852C15.24 19.9112 15.474 19.9532 15.708 20.0102L15.76 20.0202V18.8432L15.666 18.8222C15.426 18.7702 15.187 18.7232 14.942 18.6972C14.629 18.6552 14.307 18.6502 13.989 18.6922C13.593 18.7282 13.213 18.8802 12.895 19.1302C12.681 19.3022 12.52 19.5212 12.426 19.7762C12.291 20.1612 12.291 20.5892 12.426 20.9742C12.499 21.1722 12.614 21.3442 12.765 21.4842C12.895 21.6092 13.041 21.7132 13.203 21.7972C13.411 21.9122 13.635 21.9952 13.864 22.0572C13.937 22.0832 14.015 22.1042 14.088 22.1302L14.203 22.1722L14.234 22.1882C14.349 22.2242 14.453 22.2922 14.536 22.3702C14.599 22.4272 14.645 22.4952 14.671 22.5732C14.692 22.6462 14.692 22.7192 14.671 22.7872C14.635 22.9022 14.556 22.9952 14.452 23.0532C14.337 23.1102 14.212 23.1522 14.082 23.1682C13.894 23.1992 13.707 23.2042 13.514 23.1942C13.264 23.1782 13.019 23.1422 12.769 23.0952C12.644 23.0692 12.514 23.0382 12.389 23.0062L12.349 22.9992ZM9.047 24.3222H10.448V18.7702H9.047V24.3222ZM25.26 20.4102C25.89 19.9002 26.807 19.9932 27.317 20.6182C27.827 21.2432 27.734 22.1652 27.109 22.6752L27.083 22.6912C25.567 23.8582 23.791 21.6282 25.26 20.4102ZM23.229 21.5462C23.26 23.4002 24.979 24.7602 26.786 24.3592C29.359 23.8692 29.968 20.4582 27.718 19.1092C25.78 17.9112 23.275 19.2702 23.228 21.5472L23.229 21.5462ZM30.615 14.3012C30.651 15.1862 31.964 15.1862 32 14.3012V12.7652C31.964 11.8802 30.651 11.8802 30.615 12.7652V14.3012ZM26.823 14.3012C26.886 15.1602 28.146 15.1602 28.208 14.3012V10.8532C28.156 9.9832 26.88 9.9832 26.823 10.8532V14.3012ZM22.974 15.6922C23.042 16.5512 24.297 16.5512 24.359 15.6922V8.2282C24.323 7.3432 23.015 7.3432 22.974 8.2282V15.6922ZM19.193 14.3012C19.245 15.1712 20.521 15.1712 20.578 14.3012V10.8532C20.536 9.9682 19.229 9.9682 19.193 10.8532V14.3012ZM15.323 14.3012C15.406 15.1402 16.63 15.1402 16.708 14.3012V12.7652C16.672 11.8802 15.364 11.8802 15.323 12.7652V14.3012ZM11.5 14.3012C11.536 15.1862 12.844 15.1862 12.885 14.3012V10.8532C12.843 9.9682 11.536 9.9682 11.5 10.8532V14.3012ZM7.651 15.6922C7.687 16.5772 8.995 16.5772 9.036 15.6922V8.2282C8.994 7.3432 7.687 7.3432 7.651 8.2282V15.6922ZM3.833 14.3012C3.911 15.1502 5.146 15.1502 5.218 14.3012V10.8532C5.182 9.9682 3.874 9.9682 3.838 10.8532V14.3012H3.833ZM0 14.3012C0.063 15.1602 1.318 15.1602 1.385 14.3012V12.7652C1.349 11.8802 0.036 11.8802 0 12.7652V14.3012Z" fill="white"/>
</svg>
