<svg height="32" viewBox="0 0 32 32" width="32" xmlns="http://www.w3.org/2000/svg"><path d="m21.776 24.229v-1.484l-.031.016c-.333.161-.698.255-1.068.271-.385.031-.766-.083-1.073-.318-.219-.167-.385-.401-.469-.661-.094-.292-.104-.599-.031-.891.068-.302.234-.568.474-.76.214-.177.474-.286.75-.323.49-.052.979.042 1.417.266l.031.016v-1.49l-.068-.016c-.438-.141-.896-.198-1.349-.177-.417.01-.828.104-1.203.276-.385.177-.724.432-.984.76-.833 1.052-.859 2.531-.057 3.604.396.505.948.865 1.568 1.01.656.161 1.344.135 1.984-.068zm-14.661 0v-1.484l-.031.016c-.333.161-.693.255-1.068.271-.385.031-.766-.083-1.073-.318-.219-.167-.38-.401-.469-.661-.094-.286-.104-.599-.031-.891.068-.302.234-.568.474-.76.214-.177.474-.286.75-.323.49-.052.979.042 1.417.266l.031.016v-1.49l-.068-.016c-.438-.141-.891-.198-1.349-.177-.417.01-.823.104-1.203.276-.38.177-.719.432-.984.76-.833 1.052-.854 2.531-.057 3.604.391.505.948.865 1.568 1.01.656.161 1.339.135 1.984-.068zm5.234-1.229-.005 1.276.089.016c.297.052.589.089.885.115.26.021.526.026.786.016.25-.021.495-.068.734-.141.281-.078.536-.219.76-.406.198-.172.354-.391.443-.635.161-.417.156-.87-.01-1.281-.083-.214-.219-.406-.396-.552-.167-.151-.37-.271-.583-.339l-.964-.359c-.115-.047-.208-.141-.26-.25-.042-.094-.042-.203.01-.292.047-.083.12-.146.203-.193.109-.052.224-.083.344-.099.203-.026.411-.026.615.01.24.026.474.068.708.125l.052.01v-1.177l-.094-.021c-.24-.052-.479-.099-.724-.125-.313-.042-.635-.047-.953-.005-.396.036-.776.188-1.094.438-.214.172-.375.391-.469.646-.135.385-.135.813 0 1.198.073.198.188.37.339.51.13.125.276.229.438.313.208.115.432.198.661.26.073.026.151.047.224.073l.115.042.031.016c.115.036.219.104.302.182.063.057.109.125.135.203.021.073.021.146 0 .214-.036.115-.115.208-.219.266-.115.057-.24.099-.37.115-.188.031-.375.036-.568.026-.25-.016-.495-.052-.745-.099-.125-.026-.255-.057-.38-.089zm-3.302 1.323h1.401v-5.552h-1.401zm16.213-3.912c.63-.51 1.547-.417 2.057.208s.417 1.547-.208 2.057l-.026.016c-1.516 1.167-3.292-1.063-1.823-2.281zm-2.031 1.136c.031 1.854 1.75 3.214 3.557 2.813 2.573-.49 3.182-3.901.932-5.25-1.938-1.198-4.443.161-4.49 2.438zm7.386-7.245c.036.885 1.349.885 1.385 0v-1.536c-.036-.885-1.349-.885-1.385 0zm-3.792 0c.063.859 1.323.859 1.385 0v-3.448c-.052-.87-1.328-.87-1.385 0zm-3.849 1.391c.068.859 1.323.859 1.385 0v-7.464c-.036-.885-1.344-.885-1.385 0zm-3.781-1.391c.052.87 1.328.87 1.385 0v-3.448c-.042-.885-1.349-.885-1.385 0zm-3.87 0c.083.839 1.307.839 1.385 0v-1.536c-.036-.885-1.344-.885-1.385 0zm-3.823 0c.036.885 1.344.885 1.385 0v-3.448c-.042-.885-1.349-.885-1.385 0zm-3.849 1.391c.036.885 1.344.885 1.385 0v-7.464c-.042-.885-1.349-.885-1.385 0zm-3.818-1.391c.078.849 1.313.849 1.385 0v-3.448c-.036-.885-1.344-.885-1.38 0v3.448zm-3.833 0c.063.859 1.318.859 1.385 0v-1.536c-.036-.885-1.349-.885-1.385 0z"/></svg>