<svg width="210" height="239" viewBox="0 0 210 239" fill="none" xmlns="http://www.w3.org/2000/svg">
<path d="M0 188H7.88692L26.1115 211.694V188H34.5666V226.309H27.3035L8.46619 202.118V226.303H0L0 188ZM59.6699 209.461C59.1798 205.781 56.9518 203.275 53.415 203.275C49.906 203.275 47.6223 205.732 46.9428 209.461H59.6699ZM38.6715 211.918V211.808C38.6715 203.488 44.7427 196.664 53.415 196.664C63.3405 196.664 67.9077 204.209 67.9077 212.442C67.9077 213.113 67.852 213.861 67.8019 214.631H47.082C47.9175 218.365 50.5576 220.336 54.3396 220.336C57.1969 220.336 59.2355 219.463 61.5748 217.35L66.3872 221.537C63.6412 224.895 59.6142 226.947 54.2282 226.947C45.283 226.947 38.6715 220.822 38.6715 211.918ZM73.188 218.043V204.264H69.6233V197.199H73.188V189.758H81.6207V197.199H88.6388V204.264H81.6207V216.684C81.6207 218.605 82.4618 219.512 84.3388 219.512C85.9151 219.512 87.302 219.135 88.5274 218.496V225.102C86.7339 226.145 84.6675 226.789 81.838 226.789C76.697 226.789 73.188 224.785 73.188 218.043ZM155.839 211.808V211.699C155.839 206.879 152.497 203.652 148.548 203.652C144.599 203.652 141.341 206.873 141.341 211.699V211.808C141.341 216.635 144.605 219.861 148.548 219.861C152.492 219.861 155.839 216.689 155.839 211.808ZM132.992 197.199H141.452V201.386C143.491 198.668 146.32 196.67 150.726 196.67C157.66 196.67 164.272 201.971 164.272 211.699V211.808C164.272 221.537 157.772 226.844 150.726 226.844C146.214 226.844 143.435 224.846 141.452 222.525V235H132.992V197.199ZM190.567 211.808V211.699C190.567 206.879 187.225 203.652 183.276 203.652C179.327 203.652 176.047 206.873 176.047 211.699V211.808C176.047 216.635 179.333 219.861 183.276 219.861C187.22 219.861 190.567 216.689 190.567 211.808ZM167.72 197.199H176.18V201.386C178.219 198.668 181.048 196.67 185.454 196.67C192.389 196.67 199 201.971 199 211.699V211.808C199 221.537 192.5 226.844 185.454 226.844C180.943 226.844 178.163 224.846 176.18 222.525V235H167.72V197.199ZM115.831 210.394L110.662 198.056L105.499 210.394H115.831ZM106.936 188H114.633L130.869 226.309H121.98L118.387 217.781H102.964L99.3997 226.309H90.6773L106.936 188Z" fill="white"/>
<path d="M0 0V172.994H81.6657V69.1977H128.334V173H210V0H0Z" fill="#0067C5"/>
<path d="M210 203H209.043V197.982H209.011L207.144 203H206.543L204.676 197.982H204.649V203H203.691V197H205.17L206.856 201.549L208.543 197H210V203ZM202.548 197.786H200.755V203H199.798L199.793 197.786H198V197H202.548V197.786Z" fill="white"/>
</svg>
