<svg width="122" height="20" viewBox="0 0 122 20" fill="none" xmlns="http://www.w3.org/2000/svg">
<mask id="path-1-inside-1_7015_75907" fill="white">
<path d="M9.08789 2C11.3071 2 13.1816 2.76147 14.7598 4.28516C16.3379 5.80883 17.127 7.6664 17.127 9.9043C17.1269 11.4278 16.7323 12.8087 15.9434 13.999C15.9434 13.9039 15.9921 13.8087 15.9922 13.666C15.9922 13.1899 15.7954 12.7608 15.4502 12.3799C15.1051 12.0467 14.661 11.8566 14.168 11.8564C14.0201 11.8564 13.9212 11.8568 13.7734 11.9043C14.02 11.2853 14.168 10.5707 14.168 9.85645C14.168 8.42801 13.6748 7.23721 12.6885 6.2373C11.7021 5.23739 10.4688 4.76172 9.08789 4.76172C7.65777 4.76173 6.42528 5.23819 5.48828 6.19043C4.55128 7.14272 4.0088 8.3804 4.00879 9.85645C4.00879 11.5229 4.60016 12.8084 5.83301 13.7607C6.77002 14.5226 7.90478 14.9033 9.1377 14.9033C10.3704 14.9032 11.4552 14.5225 12.3428 13.7607C12.3921 14.1893 12.5405 14.57 12.8857 14.9033C13.231 15.2842 13.6748 15.4277 14.168 15.4277C14.401 15.4277 14.6328 15.382 14.8242 15.2969C14.8045 15.3139 14.7939 15.3468 14.7598 15.3799C13.1816 16.9036 11.3071 17.665 9.08789 17.665C6.77003 17.665 4.84668 16.9033 3.26855 15.332C1.6905 13.7608 1 11.9991 1 9.85645C1.00001 8.42801 1.34522 7.09466 2.08496 5.9043C2.82467 4.71401 3.81114 3.76205 5.04395 3.04785C6.27685 2.33363 7.65772 2.00001 9.08789 2Z"/>
</mask>
<path d="M9.08789 2C11.3071 2 13.1816 2.76147 14.7598 4.28516C16.3379 5.80883 17.127 7.6664 17.127 9.9043C17.1269 11.4278 16.7323 12.8087 15.9434 13.999C15.9434 13.9039 15.9921 13.8087 15.9922 13.666C15.9922 13.1899 15.7954 12.7608 15.4502 12.3799C15.1051 12.0467 14.661 11.8566 14.168 11.8564C14.0201 11.8564 13.9212 11.8568 13.7734 11.9043C14.02 11.2853 14.168 10.5707 14.168 9.85645C14.168 8.42801 13.6748 7.23721 12.6885 6.2373C11.7021 5.23739 10.4688 4.76172 9.08789 4.76172C7.65777 4.76173 6.42528 5.23819 5.48828 6.19043C4.55128 7.14272 4.0088 8.3804 4.00879 9.85645C4.00879 11.5229 4.60016 12.8084 5.83301 13.7607C6.77002 14.5226 7.90478 14.9033 9.1377 14.9033C10.3704 14.9032 11.4552 14.5225 12.3428 13.7607C12.3921 14.1893 12.5405 14.57 12.8857 14.9033C13.231 15.2842 13.6748 15.4277 14.168 15.4277C14.401 15.4277 14.6328 15.382 14.8242 15.2969C14.8045 15.3139 14.7939 15.3468 14.7598 15.3799C13.1816 16.9036 11.3071 17.665 9.08789 17.665C6.77003 17.665 4.84668 16.9033 3.26855 15.332C1.6905 13.7608 1 11.9991 1 9.85645C1.00001 8.42801 1.34522 7.09466 2.08496 5.9043C2.82467 4.71401 3.81114 3.76205 5.04395 3.04785C6.27685 2.33363 7.65772 2.00001 9.08789 2Z" fill="#282830"/>
<path d="M9.08789 2L9.08789 1.12585L9.08789 1.12585L9.08789 2ZM14.7598 4.28516L15.3669 3.65629L15.3669 3.65628L14.7598 4.28516ZM17.127 9.9043L18.0011 9.90432V9.9043H17.127ZM15.9434 13.999H15.0692V16.9001L16.672 14.482L15.9434 13.999ZM15.9922 13.666L16.8663 13.6665V13.666H15.9922ZM15.4502 12.3799L16.098 11.7929L16.0784 11.7713L16.0574 11.751L15.4502 12.3799ZM14.168 11.8564L14.1682 10.9823H14.168V11.8564ZM13.7734 11.9043L12.9613 11.5808L12.2747 13.3045L14.041 12.7365L13.7734 11.9043ZM14.168 9.85645L15.0421 9.85645L15.0421 9.85644L14.168 9.85645ZM12.6885 6.2373L13.3108 5.62343L13.3108 5.62343L12.6885 6.2373ZM9.08789 4.76172L9.08789 3.88756L9.08789 3.88756L9.08789 4.76172ZM5.48828 6.19043L4.86519 5.57732L4.86518 5.57733L5.48828 6.19043ZM4.00879 9.85645L3.13463 9.85644V9.85645H4.00879ZM5.83301 13.7607L6.38447 13.0825L6.37601 13.0756L6.36738 13.0689L5.83301 13.7607ZM9.1377 14.9033L9.1377 15.7775L9.13776 15.7775L9.1377 14.9033ZM12.3428 13.7607L13.2112 13.6608L13.023 12.0251L11.7735 13.0974L12.3428 13.7607ZM12.8857 14.9033L13.5335 14.3163L13.5139 14.2947L13.4929 14.2744L12.8857 14.9033ZM14.168 15.4277L14.168 16.3019L14.1682 16.3019L14.168 15.4277ZM14.8242 15.2969L15.3955 15.9585L14.4689 14.4982L14.8242 15.2969ZM14.7598 15.3799L15.3669 16.0088L15.3678 16.0079L14.7598 15.3799ZM9.08789 17.665L9.08789 18.5392H9.08789V17.665ZM3.26855 15.332L2.65177 15.9515L2.65178 15.9515L3.26855 15.332ZM1 9.85645L0.125845 9.85644V9.85645H1ZM2.08496 5.9043L1.3425 5.44289L1.34249 5.4429L2.08496 5.9043ZM5.04395 3.04785L4.60576 2.29145L4.60575 2.29146L5.04395 3.04785ZM9.08789 2V2.87415C11.0809 2.87415 12.7376 3.54788 14.1526 4.91403L14.7598 4.28516L15.3669 3.65628C13.6257 1.97507 11.5334 1.12585 9.08789 1.12585V2ZM14.7598 4.28516L14.1526 4.91403C15.5582 6.2712 16.2528 7.901 16.2528 9.9043H17.127H18.0011C18.0011 7.43181 17.1175 5.34647 15.3669 3.65629L14.7598 4.28516ZM17.127 9.9043L16.2528 9.90428C16.2528 11.271 15.9008 12.481 15.2147 13.5161L15.9434 13.999L16.672 14.482C17.5638 13.1365 18.0011 11.5846 18.0011 9.90432L17.127 9.9043ZM15.9434 13.999H16.8175C16.8175 14.0486 16.8112 14.0824 16.8103 14.0871C16.8098 14.0897 16.8099 14.0889 16.8117 14.0809C16.8146 14.0682 16.815 14.0668 16.82 14.0446C16.8355 13.9766 16.8663 13.8392 16.8663 13.6665L15.9922 13.666L15.118 13.6656C15.118 13.6355 15.1244 13.617 15.1154 13.6561C15.1129 13.6673 15.1004 13.7197 15.0916 13.7668C15.0816 13.8205 15.0692 13.9019 15.0692 13.999H15.9434ZM15.9922 13.666H16.8663C16.8663 12.9271 16.5548 12.2971 16.098 11.7929L15.4502 12.3799L14.8024 12.9669C15.0359 13.2245 15.118 13.4527 15.118 13.666H15.9922ZM15.4502 12.3799L16.0574 11.751C15.5566 11.2675 14.8975 10.9825 14.1682 10.9823L14.168 11.8564L14.1678 12.7306C14.4245 12.7307 14.6536 12.8259 14.843 13.0088L15.4502 12.3799ZM14.168 11.8564V10.9823C14.0107 10.9823 13.7933 10.9797 13.5058 11.0721L13.7734 11.9043L14.041 12.7365C14.0461 12.7349 14.0495 12.7339 14.0514 12.7334C14.0533 12.7329 14.0542 12.7327 14.0542 12.7327C14.0542 12.7327 14.054 12.7327 14.0538 12.7328C14.0536 12.7328 14.0541 12.7327 14.0556 12.7326C14.0588 12.7323 14.0672 12.7316 14.0856 12.7311C14.1058 12.7307 14.1292 12.7306 14.168 12.7306V11.8564ZM13.7734 11.9043L14.5855 12.2278C14.8712 11.5107 15.0421 10.6866 15.0421 9.85645H14.168H13.2938C13.2938 10.4548 13.1689 11.0599 12.9613 11.5808L13.7734 11.9043ZM14.168 9.85645L15.0421 9.85644C15.0421 8.19835 14.4586 6.78698 13.3108 5.62343L12.6885 6.2373L12.0661 6.85118C12.891 7.68744 13.2938 8.65768 13.2938 9.85645L14.168 9.85645ZM12.6885 6.2373L13.3108 5.62343C12.1493 4.44594 10.6867 3.88756 9.08789 3.88756V4.76172V5.63587C10.2508 5.63587 11.255 6.02884 12.0661 6.85118L12.6885 6.2373ZM9.08789 4.76172L9.08789 3.88756C7.45091 3.88757 5.98481 4.43949 4.86519 5.57732L5.48828 6.19043L6.11137 6.80354C6.86575 6.03689 7.86462 5.63588 9.0879 5.63587L9.08789 4.76172ZM5.48828 6.19043L4.86518 5.57733C3.76945 6.69094 3.13465 8.14794 3.13463 9.85644L4.00879 9.85645L4.88294 9.85645C4.88295 8.61285 5.3331 7.59451 6.11138 6.80353L5.48828 6.19043ZM4.00879 9.85645H3.13463C3.13463 11.766 3.83046 13.3185 5.29863 14.4525L5.83301 13.7607L6.36738 13.0689C5.36987 12.2984 4.88294 11.2799 4.88294 9.85645H4.00879ZM5.83301 13.7607L5.28155 14.439C6.38461 15.3358 7.71745 15.7775 9.1377 15.7775V14.9033V14.0292C8.09211 14.0292 7.15544 13.7093 6.38447 13.0825L5.83301 13.7607ZM9.1377 14.9033L9.13776 15.7775C10.5623 15.7774 11.8536 15.3325 12.9121 14.4241L12.3428 13.7607L11.7735 13.0974C11.0568 13.7124 10.1785 14.0291 9.13763 14.0292L9.1377 14.9033ZM12.3428 13.7607L11.4744 13.8607C11.542 14.4484 11.7598 15.0314 12.2786 15.5322L12.8857 14.9033L13.4929 14.2744C13.3212 14.1087 13.2422 13.9301 13.2112 13.6608L12.3428 13.7607ZM12.8857 14.9033L12.238 15.4903C12.7878 16.097 13.4926 16.3019 14.168 16.3019V15.4277V14.5536C13.857 14.5536 13.6741 14.4715 13.5335 14.3163L12.8857 14.9033ZM14.168 15.4277L14.1682 16.3019C14.5074 16.3018 14.8625 16.2366 15.1795 16.0956L14.8242 15.2969L14.4689 14.4982C14.4032 14.5274 14.2947 14.5536 14.1678 14.5536L14.168 15.4277ZM14.8242 15.2969L14.2529 14.6352C14.1744 14.703 14.124 14.7698 14.1002 14.8031C14.0875 14.8208 14.0775 14.8359 14.0723 14.8438C14.0696 14.848 14.0672 14.8517 14.0659 14.8537C14.0642 14.8564 14.064 14.8567 14.0635 14.8575C14.0632 14.8579 14.0954 14.8064 14.1517 14.7518L14.7598 15.3799L15.3678 16.0079C15.4128 15.9644 15.4486 15.9222 15.4766 15.8854C15.5035 15.8501 15.5232 15.8197 15.5313 15.8073C15.5331 15.8044 15.5352 15.8012 15.5357 15.8004C15.5367 15.7989 15.5365 15.7992 15.536 15.8C15.5351 15.8013 15.5295 15.81 15.5211 15.8217C15.5125 15.8337 15.4981 15.853 15.4783 15.8759C15.4583 15.899 15.4309 15.928 15.3955 15.9585L14.8242 15.2969ZM14.7598 15.3799L14.1526 14.751C12.7376 16.1172 11.0809 16.7909 9.08789 16.7909V17.665V18.5392C11.5334 18.5392 13.6257 17.69 15.3669 16.0088L14.7598 15.3799ZM9.08789 17.665L9.08789 16.7909C6.98667 16.7909 5.28961 16.1108 3.88533 14.7126L3.26855 15.332L2.65178 15.9515C4.40375 17.6959 6.55338 18.5392 9.08789 18.5392L9.08789 17.665ZM3.26855 15.332L3.88534 14.7126C2.47706 13.3104 1.87415 11.7738 1.87415 9.85645H1H0.125845C0.125845 12.2244 0.903939 14.2112 2.65177 15.9515L3.26855 15.332ZM1 9.85645L1.87415 9.85645C1.87416 8.574 2.18235 7.40373 2.82743 6.3657L2.08496 5.9043L1.34249 5.4429C0.508088 6.78559 0.125854 8.28202 0.125845 9.85644L1 9.85645ZM2.08496 5.9043L2.82742 6.36571C3.49006 5.29944 4.37113 4.44788 5.48214 3.80424L5.04395 3.04785L4.60575 2.29146C3.25114 3.07622 2.15928 4.12859 1.3425 5.44289L2.08496 5.9043ZM5.04395 3.04785L5.48213 3.80425C6.56846 3.17494 7.79532 2.87416 9.08789 2.87415L9.08789 2L9.08789 1.12585C7.52013 1.12585 5.98524 1.49232 4.60576 2.29145L5.04395 3.04785Z" fill="#282830" mask="url(#path-1-inside-1_7015_75907)"/>
<path d="M17.126 17.9996C18.1616 17.9996 19 17.1902 19 16.1902C19 15.1903 18.1616 14.3809 17.126 14.3809C16.0903 14.3809 15.252 15.1903 15.252 16.1902C15.252 17.1902 16.0903 17.9996 17.126 17.9996Z" fill="#0B9BD7"/>
<path d="M29.9386 4.89072H25.8574V3.21582H36.1707V4.89072H32.0895V15.7506H29.9386V4.89072V4.89072Z" fill="#252323"/>
<path d="M39.9207 14.3461C38.928 13.3196 38.4316 11.6987 38.4316 9.48349C38.4316 7.21427 38.928 5.5934 39.9207 4.56685C40.9135 3.54029 42.4577 3 44.4983 3C46.5389 3 48.0831 3.54029 49.0759 4.56685C50.0686 5.5934 50.565 7.2683 50.565 9.48349C50.565 11.6987 50.0686 13.2655 49.0759 14.3461C48.0831 15.3727 46.5389 15.913 44.4983 15.913C42.4577 15.913 40.9135 15.4267 39.9207 14.3461ZM47.4213 13.0494C48.028 12.347 48.3589 11.1584 48.3589 9.48349C48.3589 7.80859 48.028 6.56592 47.4213 5.86354C46.8147 5.16117 45.8219 4.78296 44.4431 4.78296C43.1195 4.78296 42.1268 5.16117 41.5201 5.86354C40.9135 6.56592 40.5825 7.80859 40.5825 9.48349C40.5825 11.1044 40.9135 12.293 41.5201 12.9954C42.1268 13.7518 43.1195 14.076 44.4431 14.076C45.8219 14.13 46.8147 13.8058 47.4213 13.0494Z" fill="#252323"/>
<path d="M54.6455 3.21582H60.5467C61.9255 3.21582 62.9734 3.53999 63.6352 4.24237C64.297 4.94475 64.6279 5.91728 64.6279 7.21398C64.6279 8.13247 64.4073 8.88888 63.9661 9.4832C63.5249 10.0775 62.8631 10.5098 62.0358 10.7799C62.2564 10.942 62.4219 11.1041 62.5873 11.3202C62.7528 11.5363 62.8631 11.7524 63.0285 12.1306L64.6279 15.7506H62.4219L60.8776 12.2387C60.7122 11.9145 60.5467 11.6444 60.3261 11.5363C60.1055 11.4282 59.7746 11.3202 59.3334 11.3202H56.9067V15.7506H54.7558V3.21582H54.6455ZM59.94 9.59126C61.5946 9.59126 62.477 8.78082 62.477 7.21398C62.477 5.64713 61.7049 4.83669 60.1606 4.83669H56.8516V9.59126H59.94Z" fill="#252323"/>
<path d="M73.0125 15.8589C71.3579 15.6968 70.0894 15.0485 69.2622 14.0219C68.4349 12.9954 68.0488 11.4826 68.0488 9.48349C68.0488 7.21427 68.5452 5.5934 69.5379 4.56685C70.5306 3.54029 72.0749 3 74.1155 3C76.1561 3 77.7003 3.54029 78.693 4.56685C79.6858 5.5934 80.1821 7.2683 80.1821 9.48349C80.1821 11.5366 79.7409 13.0494 78.9136 14.076C78.0312 15.1025 76.7627 15.6968 74.9979 15.8589C74.9979 16.4533 75.1082 16.8855 75.3288 17.1016C75.5494 17.3177 75.9355 17.4258 76.4318 17.4258C76.9282 17.4258 77.3694 17.3717 77.8658 17.2097V18.7765C77.6452 18.8305 77.3694 18.8846 77.0385 18.9386C76.7076 18.9926 76.3767 18.9926 76.0458 18.9926C74.0052 19.1007 73.0676 18.0201 73.0125 15.8589ZM77.0385 13.0494C77.6452 12.347 77.9761 11.1584 77.9761 9.48349C77.9761 7.80859 77.6452 6.56592 77.0385 5.86354C76.4318 5.16117 75.4391 4.78296 74.0603 4.78296C72.7367 4.78296 71.744 5.16117 71.1373 5.86354C70.5306 6.56592 70.1997 7.80859 70.1997 9.48349C70.1997 11.1044 70.5306 12.293 71.1373 12.9954C71.744 13.7518 72.7367 14.076 74.0603 14.076C75.4391 14.13 76.4318 13.8058 77.0385 13.0494Z" fill="#252323"/>
<path d="M85.2005 14.67C84.2078 13.8596 83.7666 12.6169 83.7666 11.05V3.21582H85.9175V10.996C85.9175 12.0226 86.1933 12.833 86.7999 13.3193C87.4066 13.8055 88.2339 14.1297 89.3369 14.1297C90.4399 14.1297 91.2672 13.8596 91.8187 13.3193C92.4254 12.779 92.7011 12.0226 92.7011 10.996V3.21582H94.852V11.1041C94.852 12.6709 94.3557 13.8596 93.4181 14.724C92.4805 15.5345 91.1017 15.9667 89.3369 15.9667C87.572 15.9127 86.1933 15.5345 85.2005 14.67Z" fill="#252323"/>
<path d="M99.209 3.21582H108.143V4.89072H101.415V8.67276H107.427V10.2936H101.415V14.1297H108.143V15.7506H99.209V3.21582Z" fill="#252323"/>
</svg>
