<svg width="246" height="50" viewBox="0 0 246 50" fill="none" xmlns="http://www.w3.org/2000/svg">
<mask id="path-1-inside-1_7015_75907" fill="white">
<path d="M18.6299 13.0996C23.1793 13.0996 27.0217 14.6616 30.2568 17.7852C33.4917 20.9086 35.1093 24.7153 35.1094 29.3027C35.1094 32.4262 34.3001 35.257 32.6826 37.6973C32.6827 37.5022 32.7841 37.3071 32.7842 37.0146C32.7842 36.0386 32.3795 35.1598 31.6719 34.3789C30.9642 33.6956 30.054 33.3047 29.043 33.3047C28.7398 33.3047 28.5376 33.3048 28.2344 33.4023C28.7398 32.1335 29.043 30.6691 29.043 29.2051C29.0429 26.277 28.0325 23.8368 26.0107 21.7871C23.9888 19.7373 21.4607 18.7607 18.6299 18.7607C15.6981 18.7608 13.1708 19.7373 11.25 21.6895C9.32919 23.6416 8.21688 26.1793 8.2168 29.2051C8.2168 32.6214 9.42962 35.2577 11.957 37.21C13.8779 38.7717 16.204 39.5518 18.7314 39.5518C21.2587 39.5517 23.483 38.7716 25.3027 37.21C25.4039 38.0883 25.7075 38.8686 26.415 39.5518C27.1227 40.3326 28.0321 40.6259 29.043 40.626C29.5178 40.626 29.9918 40.5375 30.3828 40.3652C30.3466 40.4017 30.3228 40.4645 30.2568 40.5283C27.0217 43.6519 23.1793 45.2139 18.6299 45.2139C13.8783 45.2138 9.93533 43.6518 6.7002 40.4307C3.4651 37.2095 2.0498 33.5975 2.0498 29.2051C2.04986 26.2769 2.75799 23.5437 4.27441 21.1035C5.79086 18.6634 7.81252 16.7112 10.3398 15.2471C12.8673 13.7829 15.6981 13.0996 18.6299 13.0996Z"/>
</mask>
<path d="M18.6299 13.0996C23.1793 13.0996 27.0217 14.6616 30.2568 17.7852C33.4917 20.9086 35.1093 24.7153 35.1094 29.3027C35.1094 32.4262 34.3001 35.257 32.6826 37.6973C32.6827 37.5022 32.7841 37.3071 32.7842 37.0146C32.7842 36.0386 32.3795 35.1598 31.6719 34.3789C30.9642 33.6956 30.054 33.3047 29.043 33.3047C28.7398 33.3047 28.5376 33.3048 28.2344 33.4023C28.7398 32.1335 29.043 30.6691 29.043 29.2051C29.0429 26.277 28.0325 23.8368 26.0107 21.7871C23.9888 19.7373 21.4607 18.7607 18.6299 18.7607C15.6981 18.7608 13.1708 19.7373 11.25 21.6895C9.32919 23.6416 8.21688 26.1793 8.2168 29.2051C8.2168 32.6214 9.42962 35.2577 11.957 37.21C13.8779 38.7717 16.204 39.5518 18.7314 39.5518C21.2587 39.5517 23.483 38.7716 25.3027 37.21C25.4039 38.0883 25.7075 38.8686 26.415 39.5518C27.1227 40.3326 28.0321 40.6259 29.043 40.626C29.5178 40.626 29.9918 40.5375 30.3828 40.3652C30.3466 40.4017 30.3228 40.4645 30.2568 40.5283C27.0217 43.6519 23.1793 45.2139 18.6299 45.2139C13.8783 45.2138 9.93533 43.6518 6.7002 40.4307C3.4651 37.2095 2.0498 33.5975 2.0498 29.2051C2.04986 26.2769 2.75799 23.5437 4.27441 21.1035C5.79086 18.6634 7.81252 16.7112 10.3398 15.2471C12.8673 13.7829 15.6981 13.0996 18.6299 13.0996Z" fill="#282830"/>
<path d="M18.6299 13.0996L18.6299 12.2255L18.6299 12.2255L18.6299 13.0996ZM30.2568 17.7852L30.864 17.1563L30.864 17.1563L30.2568 17.7852ZM35.1094 29.3027L35.9835 29.3027L35.9835 29.3027L35.1094 29.3027ZM32.6826 37.6973L31.8085 37.6968L31.8068 40.6007L33.4112 38.1802L32.6826 37.6973ZM32.7842 37.0146L33.6583 37.0149V37.0146H32.7842ZM31.6719 34.3789L32.3196 33.7919L32.3 33.7703L32.2791 33.75L31.6719 34.3789ZM29.043 33.3047L29.043 32.4305H29.043L29.043 33.3047ZM28.2344 33.4023L27.4223 33.0789L26.7355 34.803L28.5022 34.2345L28.2344 33.4023ZM29.043 29.2051L29.9171 29.2051L29.9171 29.2051L29.043 29.2051ZM26.0107 21.7871L26.6331 21.1733L26.6331 21.1732L26.0107 21.7871ZM18.6299 18.7607L18.6299 17.8866L18.6299 17.8866L18.6299 18.7607ZM11.25 21.6895L10.6269 21.0763L10.6269 21.0764L11.25 21.6895ZM8.2168 29.2051L7.34264 29.2051V29.2051H8.2168ZM11.957 37.21L12.5085 36.5317L12.5 36.5248L12.4914 36.5182L11.957 37.21ZM18.7314 39.5518L18.7314 40.4259L18.7315 40.4259L18.7314 39.5518ZM25.3027 37.21L26.1711 37.11L25.9828 35.4744L24.7334 36.5466L25.3027 37.21ZM26.415 39.5518L27.0628 38.9647L27.0432 38.9431L27.0222 38.9229L26.415 39.5518ZM29.043 40.626L29.0429 41.5001H29.043V40.626ZM30.3828 40.3652L31.0037 40.9805L30.0305 39.5652L30.3828 40.3652ZM30.2568 40.5283L30.864 41.1572L30.8644 41.1568L30.2568 40.5283ZM18.6299 45.2139L18.6299 46.088H18.6299V45.2139ZM6.7002 40.4307L6.08341 41.0501L6.08342 41.0501L6.7002 40.4307ZM2.0498 29.2051L1.17565 29.2051V29.2051H2.0498ZM4.27441 21.1035L3.53196 20.6421L3.53195 20.6421L4.27441 21.1035ZM10.3398 15.2471L9.90166 14.4907L9.90166 14.4907L10.3398 15.2471ZM18.6299 13.0996V13.9738C22.9529 13.9738 26.5775 15.4479 29.6497 18.414L30.2568 17.7852L30.864 17.1563C27.4658 13.8753 23.4058 12.2255 18.6299 12.2255V13.0996ZM30.2568 17.7852L29.6496 18.414C32.7122 21.371 34.2352 24.95 34.2352 29.3027L35.1094 29.3027L35.9835 29.3027C35.9835 24.4806 34.2713 20.4462 30.864 17.1563L30.2568 17.7852ZM35.1094 29.3027L34.2352 29.3027C34.2352 32.2694 33.4687 34.9292 31.954 37.2143L32.6826 37.6973L33.4112 38.1802C35.1316 35.5849 35.9835 32.5831 35.9835 29.3027L35.1094 29.3027ZM32.6826 37.6973L33.5568 37.6978C33.5568 37.7233 33.5535 37.7329 33.5574 37.7121C33.5626 37.6845 33.5687 37.6601 33.5851 37.5894C33.6139 37.465 33.6583 37.264 33.6583 37.0149L32.7842 37.0146L31.91 37.0144C31.91 37.0578 31.9037 37.1006 31.8817 37.1956C31.8727 37.2346 31.8534 37.3139 31.8396 37.3868C31.8245 37.4666 31.8085 37.5737 31.8085 37.6968L32.6826 37.6973ZM32.7842 37.0146H33.6583C33.6583 35.775 33.1383 34.6953 32.3196 33.7919L31.6719 34.3789L31.0241 34.9659C31.6208 35.6243 31.91 36.3022 31.91 37.0146H32.7842ZM31.6719 34.3789L32.2791 33.75C31.4162 32.917 30.2912 32.4305 29.043 32.4305V33.3047V34.1788C29.8168 34.1788 30.5121 34.4743 31.0647 35.0078L31.6719 34.3789ZM29.043 33.3047L29.043 32.4305C28.732 32.4305 28.4103 32.4274 27.9666 32.5702L28.2344 33.4023L28.5022 34.2345C28.6649 34.1821 28.7476 34.1788 29.043 34.1788L29.043 33.3047ZM28.2344 33.4023L29.0465 33.7258C29.591 32.3589 29.9171 30.785 29.9171 29.2051H29.043H28.1688C28.1688 30.5532 27.8886 31.908 27.4223 33.0789L28.2344 33.4023ZM29.043 29.2051L29.9171 29.2051C29.917 26.0474 28.8162 23.3866 26.6331 21.1733L26.0107 21.7871L25.3884 22.401C27.2487 24.287 28.1687 26.5067 28.1688 29.2051L29.043 29.2051ZM26.0107 21.7871L26.6331 21.1732C24.4362 18.9461 21.6789 17.8866 18.6299 17.8866V18.7607V19.6349C21.2424 19.6349 23.5414 20.5285 25.3884 22.401L26.0107 21.7871ZM18.6299 18.7607L18.6299 17.8866C15.4914 17.8866 12.7304 18.9385 10.6269 21.0763L11.25 21.6895L11.8731 22.3026C13.6112 20.5361 15.9049 19.6349 18.6299 19.6349L18.6299 18.7607ZM11.25 21.6895L10.6269 21.0764C8.54737 23.1898 7.34273 25.9468 7.34264 29.2051L8.2168 29.2051L9.09095 29.2051C9.09103 26.4118 10.111 24.0934 11.8731 22.3026L11.25 21.6895ZM8.2168 29.2051H7.34264C7.34264 32.8645 8.65992 35.7678 11.4227 37.9018L11.957 37.21L12.4914 36.5182C10.1993 34.7477 9.09095 32.3784 9.09095 29.2051H8.2168ZM11.957 37.21L11.4056 37.8882C13.4926 39.5851 16.0167 40.4259 18.7314 40.4259V39.5518V38.6776C16.3912 38.6776 14.2633 37.9584 12.5085 36.5317L11.957 37.21ZM18.7314 39.5518L18.7315 40.4259C21.4504 40.4258 23.8813 39.5817 25.872 37.8733L25.3027 37.21L24.7334 36.5466C23.0848 37.9615 21.067 38.6775 18.7314 38.6776L18.7314 39.5518ZM25.3027 37.21L24.4343 37.31C24.5537 38.347 24.9265 39.3297 25.8079 40.1806L26.415 39.5518L27.0222 38.9229C26.4885 38.4075 26.254 37.8295 26.1711 37.11L25.3027 37.21ZM26.415 39.5518L25.7673 40.1388C26.6798 41.1456 27.8503 41.5001 29.0429 41.5001L29.043 40.626L29.043 39.7518C28.2139 39.7518 27.5656 39.5195 27.0628 38.9647L26.415 39.5518ZM29.043 40.626V41.5001C29.6177 41.5001 30.2151 41.3943 30.7352 41.1652L30.3828 40.3652L30.0305 39.5652C29.7685 39.6806 29.4178 39.7518 29.043 39.7518V40.626ZM30.3828 40.3652L29.7619 39.7499C29.7012 39.8112 29.6597 39.8689 29.6393 39.8983C29.6284 39.9141 29.6191 39.9282 29.6137 39.9363C29.6063 39.9477 29.6059 39.9483 29.6025 39.9534C29.5968 39.962 29.6152 39.9328 29.6493 39.8998L30.2568 40.5283L30.8644 41.1568C30.9645 41.0601 31.0278 40.9675 31.0595 40.9197C31.0655 40.9106 31.074 40.8976 31.0752 40.8958C31.0785 40.8908 31.0776 40.8922 31.075 40.896C31.0713 40.9013 31.0463 40.9375 31.0037 40.9805L30.3828 40.3652ZM30.2568 40.5283L29.6497 39.8994C26.5775 42.8656 22.9529 44.3397 18.6299 44.3397V45.2139V46.088C23.4058 46.088 27.4658 44.4382 30.864 41.1572L30.2568 40.5283ZM18.6299 45.2139L18.6299 44.3397C14.095 44.3397 10.3783 42.8593 7.31697 39.8112L6.7002 40.4307L6.08342 41.0501C9.49235 44.4443 13.6616 46.088 18.6299 46.088L18.6299 45.2139ZM6.7002 40.4307L7.31698 39.8112C4.2517 36.7592 2.92396 33.3723 2.92396 29.2051H2.0498H1.17565C1.17565 33.8228 2.67849 37.6599 6.08341 41.0501L6.7002 40.4307ZM2.0498 29.2051L2.92396 29.2051C2.92401 26.423 3.59507 23.8528 5.01688 21.5649L4.27441 21.1035L3.53195 20.6421C1.92091 23.2345 1.17571 26.1308 1.17565 29.2051L2.0498 29.2051ZM4.27441 21.1035L5.01687 21.5649C6.45635 19.2487 8.37268 17.3969 10.778 16.0035L10.3398 15.2471L9.90166 14.4907C7.25235 16.0254 5.12537 18.0782 3.53196 20.6421L4.27441 21.1035ZM10.3398 15.2471L10.778 16.0035C13.1588 14.6243 15.8355 13.9738 18.6299 13.9738L18.6299 13.0996L18.6299 12.2255C15.5606 12.2255 12.5758 12.9416 9.90166 14.4907L10.3398 15.2471Z" fill="#282830" mask="url(#path-1-inside-1_7015_75907)"/>
<path d="M35.1084 45.8999C37.2314 45.8999 38.9501 44.2405 38.9501 42.1907C38.9501 40.1408 37.2314 38.4814 35.1084 38.4814C32.9853 38.4814 31.2666 40.1408 31.2666 42.1907C31.2666 44.2405 32.9853 45.8999 35.1084 45.8999Z" fill="#0B9BD7"/>
<path d="M57.1802 19.0263H48.8096V15.5928H69.9624V19.0263H61.5918V41.289H57.1802V19.0263V19.0263Z" fill="#252323"/>
<path d="M77.6528 38.4099C75.6167 36.3055 74.5986 32.9827 74.5986 28.4416C74.5986 23.7896 75.6167 20.4669 77.6528 18.3624C79.6889 16.258 82.8562 15.1504 87.0415 15.1504C91.2268 15.1504 94.3941 16.258 96.4302 18.3624C98.4663 20.4669 99.4843 23.9004 99.4843 28.4416C99.4843 32.9827 98.4663 36.1947 96.4302 38.4099C94.3941 40.5144 91.2268 41.622 87.0415 41.622C82.8562 41.622 79.6889 40.6251 77.6528 38.4099ZM93.0367 35.7517C94.2809 34.3118 94.9596 31.8751 94.9596 28.4416C94.9596 25.008 94.2809 22.4605 93.0367 21.0207C91.7924 19.5808 89.7563 18.8055 86.9284 18.8055C84.2136 18.8055 82.1774 19.5808 80.9332 21.0207C79.6889 22.4605 79.0102 25.008 79.0102 28.4416C79.0102 31.7643 79.6889 34.2011 80.9332 35.6409C82.1774 37.1916 84.2136 37.8561 86.9284 37.8561C89.7563 37.9669 91.7924 37.3023 93.0367 35.7517Z" fill="#252323"/>
<path d="M107.855 15.5928H119.959C122.787 15.5928 124.936 16.2573 126.293 17.6972C127.651 19.1371 128.33 21.1308 128.33 23.789C128.33 25.6719 127.877 27.2225 126.972 28.4409C126.067 29.6593 124.71 30.5453 123.013 31.0991C123.466 31.4314 123.805 31.7637 124.144 32.2067C124.484 32.6498 124.71 33.0928 125.049 33.8681L128.33 41.289H123.805L120.638 34.0896C120.298 33.4251 119.959 32.8713 119.506 32.6498C119.054 32.4282 118.375 32.2067 117.47 32.2067H112.493V41.289H108.082V15.5928H107.855ZM118.715 28.6624C122.108 28.6624 123.918 27.001 123.918 23.789C123.918 20.577 122.334 18.9156 119.167 18.9156H112.38V28.6624H118.715Z" fill="#252323"/>
<path d="M145.525 41.5112C142.132 41.1789 139.53 39.8498 137.833 37.7454C136.137 35.6409 135.345 32.5397 135.345 28.4416C135.345 23.7896 136.363 20.4669 138.399 18.3624C140.435 16.258 143.602 15.1504 147.788 15.1504C151.973 15.1504 155.14 16.258 157.176 18.3624C159.212 20.4669 160.23 23.9004 160.23 28.4416C160.23 32.6504 159.325 35.7517 157.629 37.8561C155.819 39.9606 153.217 41.1789 149.597 41.5112C149.597 42.7296 149.824 43.6156 150.276 44.0587C150.729 44.5017 151.52 44.7232 152.538 44.7232C153.556 44.7232 154.461 44.6125 155.479 44.2802V47.4922C155.027 47.603 154.461 47.7137 153.783 47.8245C153.104 47.9353 152.425 47.9353 151.747 47.9353C147.561 48.1568 145.638 45.9416 145.525 41.5112ZM153.783 35.7517C155.027 34.3118 155.706 31.8751 155.706 28.4416C155.706 25.008 155.027 22.4605 153.783 21.0207C152.538 19.5808 150.502 18.8055 147.674 18.8055C144.96 18.8055 142.924 19.5808 141.679 21.0207C140.435 22.4605 139.756 25.008 139.756 28.4416C139.756 31.7643 140.435 34.2011 141.679 35.6409C142.924 37.1916 144.96 37.8561 147.674 37.8561C150.502 37.9669 152.538 37.3023 153.783 35.7517Z" fill="#252323"/>
<path d="M170.524 39.0738C168.488 37.4124 167.583 34.865 167.583 31.6529V15.5928H171.995V31.5422C171.995 33.6466 172.56 35.308 173.804 36.3048C175.049 37.3017 176.745 37.9662 179.008 37.9662C181.27 37.9662 182.967 37.4124 184.098 36.3048C185.342 35.1972 185.908 33.6466 185.908 31.5422V15.5928H190.319V31.7637C190.319 34.9757 189.301 37.4124 187.378 39.1846C185.455 40.846 182.628 41.7321 179.008 41.7321C175.388 41.6213 172.56 40.846 170.524 39.0738Z" fill="#252323"/>
<path d="M199.255 15.5928H217.58V19.0263H203.78V26.7795H216.109V30.1023H203.78V37.9662H217.58V41.289H199.255V15.5928Z" fill="#252323"/>
</svg>
