<svg width="42" height="42" viewBox="0 0 42 42" fill="none" xmlns="http://www.w3.org/2000/svg">
<path d="M16.8984 36.8945C20.7408 33.1572 26.7159 27.2477 27.9956 25.9122C29.587 24.2552 29.1113 22.9033 28.4353 21.4136C28.2155 20.9247 24.6061 12.7741 22.2862 7.51423C22.3814 7.46829 23.2641 6.84485 23.4806 6.74969C24.1697 6.44126 24.6225 6.95969 24.9277 7.60282C25.1508 8.0786 30.345 23.0181 31.6116 26.4109C31.8183 26.9622 32.3137 27.6841 32.0348 28.2911C31.7231 28.9703 30.4631 29.3936 29.8594 29.7644C29.0948 30.2303 28.3106 30.6634 27.5198 31.0802C25.958 31.9038 24.3666 32.6748 22.8375 33.5575C21 34.6173 19.1395 35.6214 17.2922 36.6583C17.1642 36.7338 17.033 36.8158 16.8984 36.8945Z" fill="white"/>
<path d="M36.3958 33.1737C36.1432 33.282 35.8675 33.3575 35.6969 33.4231C32.163 34.7783 28.4782 35.6675 24.8327 36.6716C22.795 37.2327 20.7639 37.8298 18.7394 38.4336C18.4507 38.5222 18.0733 38.6436 17.6533 38.7814C19.3891 37.82 21.1347 36.8783 22.8508 35.8841C24.1502 35.1327 25.4791 34.4436 26.8047 33.7414C28.3929 32.9014 29.9744 32.045 31.4805 31.0639C32.186 30.6012 33.1375 30.3748 33.6789 29.6891C34.2368 28.9869 34.2039 27.9664 33.9546 27.1494C32.7635 23.3037 31.5658 19.4548 30.063 15.7208C29.351 13.9456 28.6357 12.1705 28.091 10.3362C28.0057 10.0541 27.9171 9.73906 27.8285 9.41093C29.2886 8.58078 29.1082 9.13859 29.7743 10.6611C30.8932 13.2172 31.9268 15.7503 32.7668 18.4114C33.0194 19.2022 33.2622 19.9897 33.5083 20.7805C34.1777 22.9264 34.8504 25.0723 35.5197 27.2183C35.8282 28.2125 36.1399 29.21 36.4549 30.2042C36.7239 31.0934 37.6164 32.6553 36.3958 33.1737Z" fill="white"/>
<path d="M5.64714 13.1777C5.07292 13.87 3.78339 15.4221 3.65214 15.5796C2.6612 16.7542 2.61198 18.093 2.77604 18.9888C3.07792 20.6491 6.93667 35.1063 9.14823 39.7919C9.38448 40.2972 9.66339 40.6418 9.97182 40.8682C11.7339 43.1814 17.3251 40.9207 19.2873 40.3924C22.1518 39.618 25.0459 38.9289 27.8973 38.0922C30.7585 37.2522 33.5542 36.2875 36.3892 35.3721C37.2849 35.0833 38.3251 34.7322 38.8731 33.9086C39.549 32.8947 39.3062 31.4838 38.9781 30.2861C38.289 27.7891 37.321 25.3839 36.4548 22.946C35.3228 19.7599 34.381 16.5049 33.0849 13.3778C32.6781 12.3935 32.2581 11.4189 31.8217 10.4477C31.4739 9.67331 31.2737 8.82675 30.8635 8.08191C30.227 6.94003 29.6396 6.75956 28.4026 7.21566C28.0974 7.3305 27.5692 7.57003 27.2542 7.37972C27.0146 7.23534 26.972 6.82519 26.8867 6.58237C26.7193 6.10659 26.5192 5.53566 26.2304 5.11566C26.1221 4.95816 26.004 4.77441 25.8826 4.63003C25.7185 4.43644 24.721 3.9705 23.0706 4.66941C22.6703 4.84003 17.7845 7.78003 17.7845 7.78003L5.64714 13.1777ZM16.8985 36.8946C12.0653 29.2427 13.8765 16.1997 22.2896 7.51425C22.3848 7.46831 23.2674 6.84487 23.484 6.74972C24.1731 6.44128 24.6259 6.95972 24.931 7.60284C25.1542 8.07862 30.3484 23.0182 31.6149 26.411C31.8217 26.9622 32.3171 27.6841 32.0382 28.2911C31.7265 28.9703 30.4665 29.3936 29.8628 29.7644C29.0982 30.2303 28.314 30.6635 27.5232 31.0802C25.9614 31.9038 24.3699 32.6749 22.8409 33.5575C21.0034 34.6174 19.1429 35.6214 17.2956 36.6583C17.1643 36.7338 17.0331 36.8158 16.8985 36.8946ZM36.3957 33.1736C36.1431 33.2819 35.8674 33.3574 35.6968 33.423C32.1629 34.7782 28.4781 35.6674 24.8326 36.6714C22.7949 37.2325 20.7639 37.8297 18.7393 38.4335C18.4506 38.5221 18.0732 38.6435 17.6532 38.7813C19.389 37.8199 21.1346 36.8782 22.8507 35.8839C24.1501 35.1325 25.479 34.4435 26.8046 33.7413C28.3928 32.9013 29.9743 32.0449 31.4804 31.0638C32.1859 30.6011 33.1374 30.3747 33.6789 29.6889C34.2367 28.9868 34.2039 27.9663 33.9545 27.1492C32.7634 23.3036 31.5657 19.4547 30.0629 15.7207C29.3509 13.9455 28.6356 12.1703 28.0909 10.3361C28.0056 10.0539 27.917 9.73894 27.8284 9.41081C29.2885 8.58066 29.1081 9.13847 29.7742 10.661C30.8931 13.2171 31.9267 15.7502 32.7667 18.4113C33.0193 19.2021 33.2621 19.9896 33.5082 20.7803C34.1776 22.9263 34.8503 25.0722 35.5196 27.2182C35.8281 28.2124 36.1398 29.2099 36.4548 30.2041C36.7239 31.0933 37.6164 32.6552 36.3957 33.1736Z" fill="#2F2F2F"/>
<path d="M14.789 38.8074L18.0112 35.8116C21.8043 32.107 26.8345 27.1261 27.9961 25.9153C29.5875 24.2583 29.1117 22.9064 28.4357 21.4167C28.2914 21.0952 20.0095 2.24438 19.8093 1.8211C19.1892 0.521728 18.3623 -0.0721787 17.5617 0.164071C17.2926 0.242821 17.0432 0.357665 16.807 0.498759C16.4198 0.731728 15.6093 1.46345 14.8711 2.1722C14.3887 2.63157 8.76137 9.42048 5.64746 13.1775C5.64746 13.1775 13.5684 37.59 13.8375 38.5088C14.1065 39.4308 14.789 38.8074 14.789 38.8074Z" fill="#FCC21B"/>
<path d="M16.5047 11.5727C16.6819 11.4251 16.8787 11.2807 17.0461 11.1199C17.302 10.8706 17.7877 10.4473 17.7417 10.0601C17.7187 9.84353 17.6072 9.6729 17.4366 9.58431C17.3611 9.54494 17.2692 9.52197 17.1675 9.51869C16.5572 9.50884 15.8944 10.0535 15.4678 10.4276C15.1725 10.6835 14.8378 10.9001 14.5327 11.1396C13.8862 11.6482 13.3448 12.2913 12.7345 12.8459C12.1734 13.361 11.737 13.9877 11.2383 14.5554C10.7461 15.1132 10.1948 15.6087 9.72562 16.1895C9.555 16.3995 9.37781 16.5701 9.4139 16.8556C9.45 17.1377 9.66984 17.479 9.93234 17.5971C10.3491 17.7842 10.7166 17.246 10.9725 17.0131C12.9084 15.2707 14.4966 13.2462 16.5047 11.5727ZM18.2175 12.6359C17.6695 12.8951 17.0822 13.5382 16.8492 13.7679C16.0584 14.5456 15.0773 15.2248 14.3489 16.0418C13.9092 16.534 13.463 17.0229 12.9708 17.4626C12.4097 17.9613 11.6845 18.4568 11.2908 19.1065C11.0414 19.5134 10.9594 20.2943 11.55 20.4617C12.2916 20.6749 12.6787 19.5888 13.1316 19.1951C13.8009 18.611 14.5523 18.1188 15.1889 17.4921C15.9403 16.7473 16.6327 15.9467 17.3841 15.1985C17.7975 14.7884 19.2806 13.9188 19.2773 13.3217C19.2773 13.069 19.1986 12.9115 19.0345 12.7179C18.8278 12.4685 18.5292 12.4915 18.2175 12.6359Z" fill="#2F2F2F"/>
</svg>
