<svg width="42" height="42" viewBox="0 0 42 42" fill="none" xmlns="http://www.w3.org/2000/svg">
<rect x="5" y="5" width="32" height="32" rx="16" fill="#00B488"/>
<path d="M26.5562 14.3325C26.0652 14.3329 25.5944 14.5282 25.2472 14.8754C24.9 15.2226 24.7047 15.6934 24.7044 16.1844C24.7044 16.4488 24.7621 16.6999 24.8629 16.9288L23.4147 18.5577C22.9228 18.2182 22.3392 18.0363 21.7414 18.0362C21.1932 18.0362 20.6866 18.1962 20.2458 18.4555L18.5614 16.7718L18.5444 16.7888C18.6895 16.494 18.7784 16.1659 18.7784 15.814C18.7784 15.3745 18.6481 14.9449 18.4039 14.5794C18.1597 14.214 17.8127 13.9291 17.4066 13.761C17.0006 13.5928 16.5537 13.5488 16.1227 13.6345C15.6916 13.7202 15.2956 13.9319 14.9849 14.2427C14.6741 14.5535 14.4624 14.9494 14.3767 15.3805C14.2909 15.8116 14.3349 16.2584 14.5031 16.6644C14.6713 17.0705 14.9562 17.4175 15.3216 17.6617C15.687 17.9059 16.1167 18.0362 16.5562 18.0362C16.9081 18.0362 17.2355 17.9474 17.531 17.8022L17.514 17.8192L19.1984 19.5029C18.9263 19.9548 18.7812 20.4717 18.7784 20.9992C18.7784 21.7377 19.0599 22.4059 19.5081 22.9259L17.5992 24.834C17.3852 24.7484 17.157 24.7039 16.9266 24.7029C15.9058 24.7029 15.0747 25.5333 15.0747 26.5548C15.0747 27.5762 15.9058 28.4066 16.9266 28.4066C17.9473 28.4066 18.7784 27.5762 18.7784 26.5548C18.7784 26.317 18.7295 26.0911 18.6473 25.8814L20.7495 23.7792C21.0614 23.8903 21.3918 23.9622 21.7414 23.9622C23.3755 23.9622 24.7044 22.6333 24.7044 20.9992C24.7044 20.5281 24.5836 20.0888 24.3873 19.6925L25.9555 17.9274C26.1451 17.9925 26.3451 18.0362 26.5562 18.0362C27.5777 18.0362 28.4081 17.2059 28.4081 16.1844C28.4081 15.1629 27.5777 14.3325 26.5562 14.3325ZM21.7414 22.4807C20.9244 22.4807 20.2599 21.8162 20.2599 20.9992C20.2599 20.1822 20.9244 19.5177 21.7414 19.5177C22.5584 19.5177 23.2229 20.1822 23.2229 20.9992C23.2229 21.8162 22.5584 22.4807 21.7414 22.4807Z" fill="white"/>
</svg>
