<svg width="42" height="42" viewBox="0 0 42 42" fill="none" xmlns="http://www.w3.org/2000/svg">
<rect x="5" y="5" width="32" height="32" rx="16" fill="#A921AD"/>
<path d="M14.584 28.666C15.5505 28.666 16.334 27.8825 16.334 26.916C16.334 25.9495 15.5505 25.166 14.584 25.166C13.6175 25.166 12.834 25.9495 12.834 26.916C12.834 27.8825 13.6175 28.666 14.584 28.666Z" fill="white" stroke="white" stroke-width="1.25" stroke-linecap="round" stroke-linejoin="round"/>
<path d="M18.667 21.083C19.6335 21.083 20.417 20.2995 20.417 19.333C20.417 18.3665 19.6335 17.583 18.667 17.583C17.7005 17.583 16.917 18.3665 16.917 19.333C16.917 20.2995 17.7005 21.083 18.667 21.083Z" fill="white" stroke="white" stroke-width="1.25" stroke-linecap="round" stroke-linejoin="round"/>
<path d="M23.334 25.75C24.3005 25.75 25.084 24.9665 25.084 24C25.084 23.0335 24.3005 22.25 23.334 22.25C22.3675 22.25 21.584 23.0335 21.584 24C21.584 24.9665 22.3675 25.75 23.334 25.75Z" fill="white" stroke="white" stroke-width="1.25" stroke-linecap="round" stroke-linejoin="round"/>
<path d="M27.417 18.166C28.3835 18.166 29.167 17.3825 29.167 16.416C29.167 15.4495 28.3835 14.666 27.417 14.666C26.4505 14.666 25.667 15.4495 25.667 16.416C25.667 17.3825 26.4505 18.166 27.417 18.166Z" fill="white" stroke="white" stroke-width="1.25" stroke-linecap="round" stroke-linejoin="round"/>
<path d="M17.8359 20.8711L15.415 25.3773" stroke="white" stroke-width="1.25" stroke-linecap="round" stroke-linejoin="round"/>
<path d="M22.0937 22.7598L19.9062 20.5723" stroke="white" stroke-width="1.25" stroke-linecap="round" stroke-linejoin="round"/>
<path d="M26.5859 17.9551L24.165 22.4613" stroke="white" stroke-width="1.25" stroke-linecap="round" stroke-linejoin="round"/>
</svg>
