<svg width="42" height="42" viewBox="0 0 42 42" fill="none" xmlns="http://www.w3.org/2000/svg">
<path d="M42 0H0V42H42V0Z" fill="url(#paint0_linear_1601_309412)"/>
<path fill-rule="evenodd" clip-rule="evenodd" d="M28.368 13.6678C28.368 13.9618 28.1286 14.2012 27.8341 14.2012C27.5406 14.2012 27.3012 13.9618 27.3012 13.6678C27.3012 13.3738 27.5406 13.1344 27.8341 13.1344C28.1286 13.1344 28.368 13.3738 28.368 13.6678ZM25.2012 18.9004C25.2012 18.6112 25.4364 18.3754 25.7262 18.3754C26.016 18.3754 26.2512 18.6112 26.2512 18.9004C26.2512 19.1897 26.016 19.4254 25.7262 19.4254C25.4364 19.4254 25.2012 19.1897 25.2012 18.9004ZM25.2012 28.8753C25.2012 28.586 25.4364 28.3503 25.7262 28.3503C26.016 28.3503 26.2512 28.586 26.2512 28.8753C26.2512 29.1646 26.016 29.4003 25.7262 29.4003C25.4364 29.4003 25.2012 29.1646 25.2012 28.8753ZM30.4512 22.0504C30.4512 22.3397 30.216 22.5754 29.9262 22.5754C29.6364 22.5754 29.4012 22.3397 29.4012 22.0504C29.4012 21.7611 29.6364 21.5254 29.9262 21.5254C30.216 21.5254 30.4512 21.7611 30.4512 22.0504ZM34.1252 23.7682L31.4808 22.2509C31.4892 22.1848 31.5012 22.1192 31.5012 22.0504C31.5012 21.182 30.7946 20.4754 29.9262 20.4754C29.0574 20.4754 28.3512 21.182 28.3512 22.0504C28.3512 22.9187 29.0574 23.6254 29.9262 23.6254C30.3457 23.6254 30.7248 23.4579 31.0072 23.1901L33.5403 24.6433L31.2666 25.7805C31.0886 25.8697 30.9762 26.0514 30.9762 26.2503V30.6818L24.6663 34.5646L21.5268 32.7707V29.4003H24.2478C24.4652 30.0098 25.0427 30.4503 25.7262 30.4503C26.5946 30.4503 27.3012 29.7436 27.3012 28.8753C27.3012 28.0064 26.5946 27.3003 25.7262 27.3003C25.0427 27.3003 24.4652 27.7403 24.2478 28.3503H21.5268V21.0004C21.5268 20.8161 21.4296 20.645 21.2716 20.55L18.6461 18.975L18.1059 19.8753L20.4768 21.2975V22.8415L17.3262 25.2649V23.1004C17.3262 22.9408 17.2538 22.7896 17.1294 22.6903L14.7012 20.7479V18.1313L17.6171 16.1873C17.7636 16.0896 17.8512 15.9258 17.8512 15.7505V12.6005H16.8012V15.4696L14.182 17.2152L11.5512 15.4685V11.3269L14.1762 9.796V14.1755H15.2262V9.18333L17.3278 7.95747L20.4757 9.77342L20.4762 16.2755C20.4762 16.4639 20.577 16.6377 20.7408 16.7312L24.1722 18.692C24.1628 18.7608 24.1512 18.829 24.1512 18.9004C24.1512 19.7688 24.8574 20.4754 25.7262 20.4754C26.5946 20.4754 27.3012 19.7688 27.3012 18.9004C27.3012 18.0321 26.5946 17.3254 25.7262 17.3254C25.3094 17.3254 24.9324 17.4908 24.6505 17.7559L21.5262 15.9704L21.5257 9.77447L24.6563 7.96797L30.4512 11.8314V13.1255H29.322C29.1004 12.5186 28.5171 12.0844 27.8341 12.0844C26.961 12.0844 26.2512 12.7948 26.2512 13.6678C26.2512 14.5409 26.961 15.2512 27.8341 15.2512C28.5303 15.2512 29.1225 14.8002 29.3346 14.1755H30.4512V15.7505C30.4512 15.9389 30.552 16.1127 30.7158 16.2062L34.1252 18.1549V23.7682ZM17.3357 34.5646L15.6804 33.5461L18.6813 31.4026L18.0712 30.5479L14.7096 32.9487L11.0262 30.6818V26.5475L13.3961 25.1253L12.8559 24.2249L10.4781 25.6518L7.87625 24.3509L7.87572 21.3243L10.7359 19.8948L10.2666 18.9555L7.87572 20.1504L7.87625 18.1549L11.0058 16.3668L13.6512 18.1229V20.7274L10.7359 22.663L11.3166 23.5377L14.1531 21.654L16.2762 23.3524V26.0729L13.856 27.934L14.496 28.7661L20.4768 24.1661V32.7702L17.3357 34.5646ZM34.9106 17.3947L31.5012 15.446V11.5505C31.5012 11.3747 31.4136 11.2109 31.2671 11.1137L24.9671 6.91379C24.8012 6.80354 24.587 6.79619 24.4137 6.89594L21.0023 8.86466L17.5887 6.89594C17.4249 6.80144 17.2239 6.80144 17.0616 6.89699L10.7616 10.5719C10.5999 10.6659 10.5012 10.8386 10.5012 11.0255V15.446L7.09085 17.3947C6.92705 17.4877 6.82625 17.662 6.82625 17.8504V18.0694C6.82572 18.0804 6.8252 18.0909 6.8252 18.1019V23.8159C6.8252 23.8264 6.82572 23.8369 6.82625 23.8469V24.6753C6.82625 24.8743 6.9386 25.056 7.11657 25.1447L9.97625 26.5748V30.9753C9.97625 31.1574 10.0702 31.3265 10.2256 31.422L17.0506 35.622C17.1351 35.6739 17.2307 35.7002 17.3262 35.7002C17.416 35.7002 17.5058 35.6771 17.5866 35.6309L21.0018 33.68L24.4158 35.6309C24.5812 35.7259 24.787 35.7222 24.9513 35.622L31.7763 31.422C31.9317 31.3265 32.0262 31.1574 32.0262 30.9753V26.5748L34.8849 25.1447C35.0628 25.056 35.1752 24.8743 35.1752 24.6753V17.8504C35.1752 17.662 35.0739 17.4882 34.9106 17.3947Z" fill="white"/>
<defs>
<linearGradient id="paint0_linear_1601_309412" x1="0" y1="4200" x2="4200" y2="0" gradientUnits="userSpaceOnUse">
<stop stop-color="#055F4E"/>
<stop offset="1" stop-color="#56C0A7"/>
</linearGradient>
</defs>
</svg>
