<svg width="42" height="42" viewBox="0 0 42 42" fill="none" xmlns="http://www.w3.org/2000/svg">
<rect x="5" y="5" width="32" height="32" rx="16" fill="#5ACAD9"/>
<path d="M25.0957 17.8678C25.0438 17.8604 24.992 17.8604 24.9401 17.8678C23.792 17.8308 22.8809 16.89 22.8809 15.7345C22.8809 14.5567 23.8364 13.5938 25.0216 13.5938C26.1994 13.5938 27.1623 14.5493 27.1623 15.7345C27.1549 16.89 26.2438 17.8308 25.0957 17.8678Z" fill="white"/>
<path d="M27.5129 23.0014C26.6833 23.5569 25.5203 23.7643 24.4462 23.6236C24.7277 23.0162 24.8758 22.3421 24.8833 21.631C24.8833 20.8903 24.7203 20.1866 24.4092 19.5718C25.5055 19.4236 26.6684 19.631 27.5055 20.1866C28.6758 20.9569 28.6758 22.2236 27.5129 23.0014Z" fill="white"/>
<path d="M16.8815 17.8678C16.9334 17.8604 16.9852 17.8604 17.0371 17.8678C18.1852 17.8308 19.0963 16.89 19.0963 15.7345C19.0963 14.5493 18.1408 13.5938 16.9556 13.5938C15.7778 13.5938 14.8223 14.5493 14.8223 15.7345C14.8223 16.89 15.7334 17.8308 16.8815 17.8678Z" fill="white"/>
<path d="M16.9639 21.6312C16.9639 22.3497 17.1195 23.0312 17.401 23.646C16.3565 23.7571 15.2676 23.5349 14.4676 23.0089C13.2973 22.2312 13.2973 20.9645 14.4676 20.1867C15.2602 19.6534 16.3787 19.4386 17.4306 19.5571C17.1269 20.1793 16.9639 20.883 16.9639 21.6312Z" fill="white"/>
<path d="M21.0898 23.8672C21.0305 23.8598 20.9638 23.8598 20.8972 23.8672C19.5342 23.8228 18.4453 22.7042 18.4453 21.3265C18.4527 19.9191 19.5861 18.7783 21.0009 18.7783C22.4083 18.7783 23.549 19.9191 23.549 21.3265C23.5416 22.7042 22.4601 23.8228 21.0898 23.8672Z" fill="white"/>
<path d="M18.6826 25.4006C17.5641 26.1488 17.5641 27.3784 18.6826 28.1191C19.9567 28.971 22.0456 28.971 23.3197 28.1191C24.4382 27.371 24.4382 26.1413 23.3197 25.4006C22.053 24.5488 19.9641 24.5488 18.6826 25.4006Z" fill="white"/>
</svg>
