<svg width="42" height="42" viewBox="0 0 42 42" fill="none" xmlns="http://www.w3.org/2000/svg">
<g clip-path="url(#clip0_1601_309600)">
<path d="M2 2H40V40H2V2Z" fill="#D86613"/>
<path d="M9.34724 33.6663H15.5894C15.6849 33.6661 15.7784 33.6388 15.859 33.5877C15.9397 33.5366 16.0043 33.4638 16.0454 33.3775L24.8715 14.9197H28.6056C28.74 14.9197 28.8689 14.8663 28.9639 14.7713C29.0589 14.6763 29.1123 14.5474 29.1123 14.413V8.83967C29.1123 8.7053 29.0589 8.57643 28.9639 8.48141C28.8689 8.38639 28.74 8.33301 28.6056 8.33301H20.803C20.7075 8.33328 20.614 8.36053 20.5333 8.41163C20.4526 8.46273 20.388 8.53559 20.347 8.62181L11.5614 27.0797H9.34724C9.21286 27.0797 9.08399 27.1331 8.98897 27.2281C8.89395 27.3231 8.84057 27.452 8.84057 27.5863V33.1597C8.84057 33.294 8.89395 33.4229 8.98897 33.5179C9.08399 33.613 9.21286 33.6663 9.34724 33.6663ZM15.2702 32.653H9.85391V28.093H11.8806C11.9761 28.0927 12.0696 28.0655 12.1502 28.0144C12.2309 27.9633 12.2955 27.8904 12.3366 27.8042L21.1222 9.34634H28.0939V13.9063H24.5472C24.4517 13.9066 24.3583 13.9339 24.2776 13.985C24.1969 14.0361 24.1323 14.1089 24.0912 14.1951L15.2702 32.653Z" fill="white"/>
<path d="M26.0772 33.6663H32.6638C32.7499 33.6665 32.8347 33.6447 32.91 33.603C32.9854 33.5614 33.0489 33.5012 33.0945 33.4282C33.1429 33.3534 33.1707 33.2672 33.1751 33.1782C33.1796 33.0893 33.1605 33.0007 33.1198 32.9215L26.2292 18.5271C26.1881 18.4409 26.1235 18.368 26.0428 18.3169C25.9621 18.2658 25.8687 18.2386 25.7732 18.2383V18.2383C25.6782 18.2381 25.5851 18.2646 25.5045 18.3148C25.4239 18.3649 25.359 18.4367 25.3172 18.522L22.0188 25.3063C21.9856 25.375 21.9683 25.4504 21.9683 25.5267C21.9683 25.603 21.9856 25.6784 22.0188 25.7471L25.6161 33.3471C25.653 33.4398 25.7164 33.5195 25.7985 33.5763C25.8805 33.6331 25.9774 33.6644 26.0772 33.6663ZM31.8532 32.653H26.3964L23.0372 25.5596L25.7681 19.9103L31.8532 32.653Z" fill="white"/>
</g>
<defs>
<clipPath id="clip0_1601_309600">
<rect width="38" height="38" fill="white" transform="matrix(-1 0 0 1 40 2)"/>
</clipPath>
</defs>
</svg>
