<svg width="42" height="42" viewBox="0 0 42 42" fill="none" xmlns="http://www.w3.org/2000/svg">
<path d="M14 26.25H28V25.2875C28 23.975 27.3583 22.9323 26.075 22.1594C24.7917 21.3865 23.1 21 21 21C18.9 21 17.2083 21.3865 15.925 22.1594C14.6417 22.9323 14 23.975 14 25.2875V26.25ZM21 19.25C21.9625 19.25 22.7865 18.9073 23.4719 18.2219C24.1573 17.5365 24.5 16.7125 24.5 15.75C24.5 14.7875 24.1573 13.9635 23.4719 13.2781C22.7865 12.5927 21.9625 12.25 21 12.25C20.0375 12.25 19.2135 12.5927 18.5281 13.2781C17.8427 13.9635 17.5 14.7875 17.5 15.75C17.5 16.7125 17.8427 17.5365 18.5281 18.2219C19.2135 18.9073 20.0375 19.25 21 19.25ZM14 36.75V33.25H7C6.0375 33.25 5.21354 32.9073 4.52813 32.2219C3.84271 31.5365 3.5 30.7125 3.5 29.75V8.75C3.5 7.7875 3.84271 6.96354 4.52813 6.27812C5.21354 5.59271 6.0375 5.25 7 5.25H35C35.9625 5.25 36.7865 5.59271 37.4719 6.27812C38.1573 6.96354 38.5 7.7875 38.5 8.75V29.75C38.5 30.7125 38.1573 31.5365 37.4719 32.2219C36.7865 32.9073 35.9625 33.25 35 33.25H28V36.75H14ZM7 29.75H35V8.75H7V29.75Z" fill="#E5E5E8"/>
</svg>
