<svg width="42" height="42" viewBox="0 0 42 42" fill="none" xmlns="http://www.w3.org/2000/svg">
<path d="M21.0066 11.1723C20.2507 11.1723 19.5117 10.9482 18.8832 10.5282C18.2547 10.1082 17.7648 9.51132 17.4755 8.81294C17.1862 8.11456 17.1105 7.34608 17.258 6.60469C17.4055 5.86329 17.7695 5.18228 18.304 4.64776C18.8385 4.11324 19.5195 3.74923 20.2609 3.60176C21.0023 3.45429 21.7708 3.52998 22.4692 3.81925C23.1676 4.10853 23.7645 4.59841 24.1844 5.22693C24.6044 5.85546 24.8286 6.5944 24.8286 7.35032C24.8272 8.36357 24.4241 9.33494 23.7077 10.0514C22.9912 10.7679 22.0198 11.171 21.0066 11.1723ZM21.0066 4.87232C20.5165 4.87232 20.0374 5.01765 19.6299 5.28994C19.2224 5.56223 18.9048 5.94924 18.7172 6.40203C18.5296 6.85483 18.4806 7.35307 18.5762 7.83376C18.6718 8.31444 18.9078 8.75598 19.2544 9.10253C19.6009 9.44909 20.0425 9.68509 20.5231 9.78071C21.0038 9.87632 21.5021 9.82725 21.9549 9.6397C22.4077 9.45214 22.7947 9.13453 23.067 8.72702C23.3392 8.31952 23.4846 7.84042 23.4846 7.35032C23.4837 6.69339 23.2223 6.06362 22.7578 5.59909C22.2933 5.13457 21.6635 4.87321 21.0066 4.87232Z" fill="#E5E5E8"/>
<path d="M27.9451 22.4301H14.0704C13.8922 22.4301 13.7213 22.3593 13.5953 22.2333C13.4692 22.1073 13.3984 21.9363 13.3984 21.7581V17.8811C13.3984 14.863 15.8542 12.4072 18.8723 12.4072H23.1424C26.1606 12.4072 28.6163 14.863 28.6163 17.8811V21.7581C28.6163 21.9362 28.5456 22.107 28.4198 22.233C28.2939 22.359 28.1232 22.4299 27.9451 22.4301ZM14.7424 21.0861H27.2731V17.8811C27.2719 16.786 26.8363 15.7361 26.0619 14.9619C25.2875 14.1876 24.2375 13.7522 23.1424 13.7512H18.871C17.7763 13.7528 16.7269 14.1884 15.9529 14.9626C15.179 15.7368 14.7437 16.7864 14.7424 17.8811V21.0861Z" fill="#E5E5E8"/>
<path d="M25.3683 22.4309C25.1901 22.4309 25.0191 22.3601 24.8931 22.2341C24.7671 22.1081 24.6963 21.9372 24.6963 21.7589V18.8126C24.6963 18.6344 24.7671 18.4635 24.8931 18.3374C25.0191 18.2114 25.1901 18.1406 25.3683 18.1406C25.5465 18.1406 25.7174 18.2114 25.8435 18.3374C25.9695 18.4635 26.0403 18.6344 26.0403 18.8126V21.7589C26.0403 21.9372 25.9695 22.1081 25.8435 22.2341C25.7174 22.3601 25.5465 22.4309 25.3683 22.4309Z" fill="#E5E5E8"/>
<path d="M16.6466 22.4309C16.4684 22.4309 16.2975 22.3601 16.1714 22.2341C16.0454 22.1081 15.9746 21.9372 15.9746 21.7589V18.8126C15.9746 18.6344 16.0454 18.4635 16.1714 18.3374C16.2975 18.2114 16.4684 18.1406 16.6466 18.1406C16.8248 18.1406 16.9958 18.2114 17.1218 18.3374C17.2478 18.4635 17.3186 18.6344 17.3186 18.8126V21.7589C17.3186 21.9372 17.2478 22.1081 17.1218 22.2341C16.9958 22.3601 16.8248 22.4309 16.6466 22.4309Z" fill="#E5E5E8"/>
<path d="M25.5686 32.8249H18.0296C17.8514 32.8249 17.6805 32.7541 17.5545 32.628C17.4284 32.502 17.3576 32.3311 17.3576 32.1529C17.3576 31.9746 17.4284 31.8037 17.5545 31.6777C17.6805 31.5517 17.8514 31.4809 18.0296 31.4809H25.5686C25.9515 31.4744 26.3165 31.3177 26.5849 31.0447C26.8534 30.7716 27.0038 30.404 27.0038 30.0211C27.0038 29.6382 26.8534 29.2707 26.5849 28.9976C26.3165 28.7246 25.9515 28.5679 25.5686 28.5614H18.0112C17.9477 28.5614 16.4374 28.5089 14.5516 27.692L14.4332 27.6404C12.6793 26.8709 11.3907 26.4782 10.6036 26.4732C9.33438 26.4652 8.24658 26.7252 7.37382 27.2426C7.29795 27.2888 7.21368 27.3195 7.12589 27.3329C7.0381 27.3462 6.94852 27.3421 6.86234 27.3207C6.77616 27.2992 6.69508 27.2609 6.62379 27.208C6.5525 27.155 6.49242 27.0884 6.44701 27.0121C6.40161 26.9358 6.37178 26.8512 6.35925 26.7633C6.34673 26.6754 6.35176 26.5859 6.37405 26.4999C6.39633 26.4139 6.43544 26.3332 6.48911 26.2625C6.54277 26.1917 6.60993 26.1323 6.6867 26.0876C7.77282 25.4417 9.09246 25.1179 10.6124 25.1292C11.9241 25.138 13.7293 25.8642 14.9729 26.4094L15.0863 26.4589C16.6567 27.1393 17.9351 27.2124 18.0427 27.2174H25.5686C26.3063 27.2265 27.0107 27.5258 27.5291 28.0506C28.0475 28.5755 28.3382 29.2834 28.3382 30.0211C28.3382 30.7588 28.0475 31.4668 27.5291 31.9916C27.0107 32.5165 26.3063 32.8158 25.5686 32.8249Z" fill="#E5E5E8"/>
<path d="M20.9439 38.4718C20.625 38.4718 20.3044 38.4568 19.9821 38.4268C18.8631 38.3188 17.7689 38.0308 16.7418 37.5738L13.9521 36.3441C13.1029 35.9685 12.2319 35.6439 11.3439 35.3722C10.7114 35.1798 10.3779 35.1109 10.2099 35.087C8.84788 34.893 7.80376 34.8976 7.26994 35.1004C7.16807 35.1391 7.05832 35.1525 6.95015 35.1393C6.84198 35.1261 6.73864 35.0868 6.64902 35.0248C6.55941 34.9628 6.48623 34.88 6.43577 34.7834C6.38531 34.6868 6.35909 34.5794 6.35938 34.4704V26.6244C6.35938 26.4462 6.43018 26.2753 6.5562 26.1492C6.68223 26.0232 6.85315 25.9524 7.03138 25.9524C7.2096 25.9524 7.38053 26.0232 7.50655 26.1492C7.63258 26.2753 7.70338 26.4462 7.70338 26.6244V33.6418C8.41066 33.5637 9.3124 33.6023 10.3998 33.7573C10.7177 33.8022 11.1558 33.9102 11.7358 34.087C12.6753 34.3742 13.5968 34.7176 14.4952 35.1151L17.2853 36.3445C18.18 36.7434 19.1334 36.995 20.1085 37.0896C20.8387 37.1594 21.5748 37.1365 22.2992 37.0215C23.2199 36.8728 24.5752 36.415 25.0851 36.2428L25.172 36.2134C30.2675 34.5053 34.8824 29.9134 36.63 28.0234C36.837 27.8034 36.9864 27.5356 37.065 27.2439C37.1436 26.9523 37.149 26.6457 37.0807 26.3514C36.9891 25.9696 36.7556 25.4535 35.7921 25.3749C35.3552 25.3413 34.9206 25.4645 34.5662 25.7223L28.091 30.3964C28.0196 30.4499 27.9382 30.4886 27.8517 30.5103C27.7651 30.532 27.6751 30.5362 27.5869 30.5228C27.4987 30.5093 27.4141 30.4784 27.338 30.4319C27.2618 30.3854 27.1957 30.3242 27.1435 30.2519C27.0913 30.1795 27.054 30.0975 27.0338 30.0106C27.0136 29.9237 27.0109 29.8336 27.0258 29.7457C27.0408 29.6577 27.0732 29.5736 27.121 29.4983C27.1688 29.423 27.2311 29.3579 27.3044 29.307L33.7799 24.6328C34.3929 24.1869 35.1448 23.9743 35.9005 24.033C37.2189 24.1405 38.1017 24.8516 38.3861 26.0343C38.5063 26.5434 38.499 27.0743 38.3647 27.5799C38.2303 28.0855 37.9732 28.55 37.6162 28.9323C35.7984 30.9025 30.9886 35.6796 25.5983 37.4869L25.5143 37.5154C24.975 37.6973 23.5428 38.1811 22.5122 38.3458C21.9936 38.4295 21.4692 38.4716 20.9439 38.4718Z" fill="#E5E5E8"/>
<path d="M5.6237 37.2149C5.06821 37.2143 4.53563 36.9935 4.14281 36.6007C3.74998 36.208 3.52899 35.6754 3.52832 35.1199V25.6536C3.52832 25.0979 3.74904 24.5651 4.14192 24.1722C4.5348 23.7793 5.06766 23.5586 5.62328 23.5586C6.1789 23.5586 6.71176 23.7793 7.10464 24.1722C7.49752 24.5651 7.71824 25.0979 7.71824 25.6536V35.1199C7.71768 35.6753 7.49685 36.2078 7.10418 36.6005C6.71151 36.9933 6.17907 37.2142 5.6237 37.2149ZM5.6237 24.903C5.4246 24.9031 5.23368 24.9822 5.09281 25.1229C4.95195 25.2636 4.87265 25.4545 4.87232 25.6536V35.1199C4.87232 35.3191 4.95144 35.5101 5.09227 35.6509C5.2331 35.7918 5.42411 35.8709 5.62328 35.8709C5.82245 35.8709 6.01346 35.7918 6.15429 35.6509C6.29512 35.5101 6.37424 35.3191 6.37424 35.1199V25.6536C6.37402 25.4546 6.29487 25.2638 6.15417 25.1231C6.01346 24.9824 5.82269 24.9032 5.6237 24.903Z" fill="#E5E5E8"/>
</svg>
