<svg width="42" height="42" viewBox="0 0 42 42" fill="none" xmlns="http://www.w3.org/2000/svg">
<rect x="5" y="5" width="32" height="32" rx="16" fill="#6E0FCE"/>
<g clip-path="url(#clip0_1601_309454)">
<path d="M13.5928 26.3705C13.5928 26.6773 13.8415 26.9261 14.1483 26.9261H27.852C28.1589 26.9261 28.4076 26.6773 28.4076 26.3705V24.5187C28.4076 24.2118 28.1589 23.9631 27.852 23.9631H14.1483C13.8415 23.9631 13.5928 24.2118 13.5928 24.5187V26.3705ZM15.0743 25.2594C15.0743 24.9526 15.323 24.7038 15.6298 24.7038H16.0002C16.307 24.7038 16.5557 24.9526 16.5557 25.2594V25.6298C16.5557 25.9366 16.307 26.1853 16.0002 26.1853H15.6298C15.323 26.1853 15.0743 25.9366 15.0743 25.6298V25.2594ZM14.1483 15.0742C13.8415 15.0742 13.5928 15.3229 13.5928 15.6298V17.4816C13.5928 17.7885 13.8415 18.0372 14.1483 18.0372H27.852C28.1589 18.0372 28.4076 17.7885 28.4076 17.4816V15.6298C28.4076 15.323 28.1589 15.0742 27.852 15.0742H14.1483ZM16.5557 16.7409C16.5557 17.0477 16.307 17.2964 16.0002 17.2964H15.6298C15.323 17.2964 15.0743 17.0477 15.0743 16.7409V16.3705C15.0743 16.0637 15.323 15.815 15.6298 15.815H16.0002C16.307 15.815 16.5557 16.0637 16.5557 16.3705V16.7409ZM13.5928 21.9261C13.5928 22.2329 13.8415 22.4816 14.1483 22.4816H27.852C28.1589 22.4816 28.4076 22.2329 28.4076 21.9261V20.0742C28.4076 19.7674 28.1589 19.5187 27.852 19.5187H14.1483C13.8415 19.5187 13.5928 19.7674 13.5928 20.0742V21.9261ZM15.0743 20.815C15.0743 20.5081 15.323 20.2594 15.6298 20.2594H16.0002C16.307 20.2594 16.5557 20.5081 16.5557 20.815V21.1853C16.5557 21.4922 16.307 21.7409 16.0002 21.7409H15.6298C15.323 21.7409 15.0743 21.4922 15.0743 21.1853V20.815Z" fill="white"/>
</g>
<defs>
<clipPath id="clip0_1601_309454">
<rect width="17.7778" height="17.7778" fill="white" transform="translate(12.1113 12.1113)"/>
</clipPath>
</defs>
</svg>
