<svg width="42" height="42" viewBox="0 0 42 42" fill="none" xmlns="http://www.w3.org/2000/svg">
<rect width="42" height="42" rx="4" fill="url(#paint0_linear_1601_309414)"/>
<path d="M24.6891 36.9088C31.8021 36.4131 37.4666 30.3648 37.9324 22.7721C38.0225 21.2869 38.0225 19.748 37.9324 18.2627C37.4666 10.6718 31.8021 4.62707 24.6891 4.12781C22.2323 3.9574 19.7676 3.9574 17.3109 4.12781C10.1979 4.62528 4.53335 10.6718 4.06754 18.2645C3.97749 19.7661 3.97749 21.2723 4.06754 22.7739C4.23755 25.5386 5.39868 28.0993 6.76721 30.261C7.56113 31.7731 7.03752 33.661 6.2096 35.3126C5.61458 36.5026 5.31537 37.0967 5.55508 37.5262C5.79309 37.9557 6.3286 37.97 7.39793 37.9968C9.51448 38.0505 10.9408 37.4206 12.0731 36.542C12.714 36.0427 13.0353 35.794 13.2563 35.7654C13.4773 35.7367 13.9142 35.9264 14.7846 36.3022C15.5666 36.6422 16.4762 36.8516 17.3092 36.9106C19.7318 37.0788 22.2631 37.0788 24.6908 36.9106" stroke="white" stroke-width="1.5" stroke-linecap="round" stroke-linejoin="round"/>
<path d="M13.3506 26.3676L16.4821 16.4791C16.5607 16.2323 16.711 16.0177 16.9117 15.8657C17.1124 15.7137 17.3534 15.632 17.6007 15.632C17.848 15.632 18.089 15.7137 18.2897 15.8657C18.4904 16.0177 18.6407 16.2323 18.7193 16.4791L21.8508 26.3676M26.9509 15.6309V26.3676M15.0506 22.7887H20.1508" stroke="white" stroke-width="1.5" stroke-linecap="round" stroke-linejoin="round"/>
<defs>
<linearGradient id="paint0_linear_1601_309414" x1="21" y1="0" x2="21" y2="42" gradientUnits="userSpaceOnUse">
<stop stop-color="#E487F2"/>
<stop offset="1" stop-color="#AD60E2"/>
</linearGradient>
</defs>
</svg>
