<svg width="42" height="42" viewBox="0 0 42 42" fill="none" xmlns="http://www.w3.org/2000/svg">
<rect x="5" y="5" width="32" height="32" rx="16" fill="#EF694B"/>
<path d="M26.9261 16.5567C26.9261 14.9508 24.2127 13.5938 21.0001 13.5938C17.7876 13.5938 15.0742 14.9508 15.0742 16.5567V18.0382C15.0742 19.6441 17.7876 21.0012 21.0001 21.0012C24.2127 21.0012 26.9261 19.6441 26.9261 18.0382V16.5567ZM21.0001 26.1863C17.7876 26.1863 15.0742 24.8293 15.0742 23.2234V25.4456C15.0742 27.0515 17.7876 28.4086 21.0001 28.4086C24.2127 28.4086 26.9261 27.0515 26.9261 25.4456V23.2234C26.9261 24.8293 24.2127 26.1863 21.0001 26.1863Z" fill="white"/>
<path d="M26.9261 19.5186C26.9261 21.1245 24.2127 22.4815 21.0001 22.4815C17.7876 22.4815 15.0742 21.1245 15.0742 19.5186V21.7408C15.0742 23.3467 17.7876 24.7037 21.0001 24.7037C24.2127 24.7037 26.9261 23.3467 26.9261 21.7408V19.5186Z" fill="white"/>
</svg>
