<svg width="42" height="42" viewBox="0 0 42 42" fill="none" xmlns="http://www.w3.org/2000/svg">
<g clip-path="url(#clip0_1601_309598)">
<path d="M2 2H40V40H2V2Z" fill="url(#paint0_linear_1601_309598)"/>
<path d="M8.87582 22.2973C9.02276 21.5018 9.92462 20.9394 10.5428 20.5391C10.7404 20.4125 11.2825 20.2098 11.3281 20.0325C11.3312 19.9056 11.3141 19.779 11.2774 19.6575L10.7708 16.0146C10.6238 14.9455 10.482 13.8765 10.335 12.8074C10.2033 11.8245 10.6745 11.1658 11.475 10.6135C13.1065 9.48365 15.2345 9.02765 17.1548 8.71352C19.563 8.32034 22.0119 8.2403 24.4406 8.47538C26.625 8.63567 28.769 9.14899 30.7892 9.99538C31.8734 10.5021 33.2921 11.2925 33.1148 12.6757C32.6081 16.7898 32.0102 20.8938 31.458 25.0029C31.2046 26.8826 30.9513 28.7623 30.698 30.6421C30.6571 31.0081 30.5203 31.3569 30.3014 31.6531C30.0826 31.9494 29.7894 32.1826 29.4516 32.3293C27.8809 33.1805 25.9353 33.4237 24.1822 33.5858C21.8516 33.7963 19.5033 33.6924 17.2004 33.2767C15.7412 33.0082 13.0254 32.5674 12.7924 30.7434C12.5036 28.4837 12.1844 26.2239 11.8804 23.9693L11.7689 23.2802C10.943 23.4778 8.58702 23.8983 8.87582 22.2973ZM21.735 9.34685C18.695 9.34685 15.2142 9.69138 12.4884 11.1911C12.0678 11.4242 11.09 11.9461 11.3838 12.5642C11.6777 13.1823 12.5897 13.4914 13.147 13.7143C13.9429 14.0083 14.7613 14.237 15.5942 14.3983C19.211 15.1148 22.9253 15.1919 26.5686 14.6263C28.2138 14.4567 29.8141 13.9879 31.2908 13.2431C31.6556 13.0354 32.2585 12.6605 32.0913 12.1639C31.9589 11.8971 31.751 11.6751 31.4934 11.5255C30.3805 10.8098 29.1431 10.3097 27.8454 10.0511C25.8445 9.57078 23.7928 9.3343 21.735 9.34685V9.34685ZM13.7905 30.7029C13.8665 31.2957 14.8444 31.5895 15.3105 31.7567C16.2782 32.0804 17.2765 32.3045 18.2897 32.4255C20.5378 32.7244 22.8157 32.7244 25.0638 32.4255C26.4719 32.3163 27.8469 31.9433 29.1172 31.3261C29.29 31.2509 29.4384 31.1291 29.5458 30.9743C29.6532 30.8194 29.7153 30.6377 29.7252 30.4495C30.2318 26.4317 30.8094 22.4138 31.3516 18.3959L31.9393 14.0386C30.7874 14.6744 29.5373 15.1128 28.2406 15.3357C26.8518 15.6183 25.4449 15.8028 24.0302 15.8879C21.2538 16.0869 18.4633 15.9319 15.726 15.4269C14.2674 15.2171 12.8584 14.7468 11.5662 14.0386L12.6404 21.9933C15.2079 21.1474 17.7163 20.1318 20.1492 18.9533C20.2559 18.9125 20.3592 18.8634 20.4582 18.8063C20.595 18.705 20.5596 18.7557 20.6254 18.5986C20.7521 18.3098 20.7825 18.0919 21.051 17.8538C21.196 17.7377 21.3671 17.6587 21.5496 17.6239C21.732 17.589 21.9202 17.5992 22.0978 17.6536C22.2754 17.7081 22.437 17.8051 22.5685 17.9362C22.7 18.0673 22.7976 18.2286 22.8526 18.406C22.9075 18.5834 22.9184 18.7716 22.8841 18.9541C22.8498 19.1367 22.7714 19.3081 22.6557 19.4534C22.5401 19.5988 22.3906 19.7136 22.2205 19.7881C22.0503 19.8625 21.8645 19.8942 21.6793 19.8805C21.5046 19.8515 21.3344 19.8004 21.1726 19.7285C20.975 19.6677 20.975 19.6778 20.7673 19.7741C18.3032 20.9756 15.7647 22.0181 13.1673 22.8951C12.7772 23.0218 12.7822 22.8951 12.7822 23.2194C12.7987 23.4661 12.8308 23.7115 12.8785 23.9541L13.2028 26.3709L13.7905 30.7029ZM21.6084 18.7202C21.6084 18.857 21.8009 18.8418 21.8516 18.7557C21.9022 18.6695 21.6084 18.5277 21.6084 18.7202ZM11.627 22.2669L11.475 21.1471C10.9684 21.4359 10.107 21.8717 9.87902 22.4493C10.3756 22.6519 11.1609 22.3834 11.627 22.2669Z" fill="white"/>
</g>
<defs>
<linearGradient id="paint0_linear_1601_309598" x1="47.8685" y1="47.8685" x2="-5.86853" y2="-5.86853" gradientUnits="userSpaceOnUse">
<stop stop-color="#1B660F"/>
<stop offset="1" stop-color="#6CAE3E"/>
</linearGradient>
<clipPath id="clip0_1601_309598">
<rect width="38" height="38" fill="white" transform="matrix(-1 0 0 1 40 2)"/>
</clipPath>
</defs>
</svg>
