<svg width="42" height="42" viewBox="0 0 42 42" fill="none" xmlns="http://www.w3.org/2000/svg">
<g clip-path="url(#clip0_1601_309819)">
<path d="M8.6416 33.3584H33.3584V8.6416H8.6416V33.3584ZM32.0784 32.0784H9.9216V9.9216H32.0784V32.0784Z" fill="#FF9900"/>
<path d="M28.5452 5.63965H29.8252V9.28125H28.5452V5.63965Z" fill="#FF9900"/>
<path d="M24.5325 5.63965H25.8125V9.28125H24.5325V5.63965Z" fill="#FF9900"/>
<path d="M20.5139 5.63965H21.7939V9.28125H20.5139V5.63965Z" fill="#FF9900"/>
<path d="M16.4944 5.63965H17.7744V9.28125H16.4944V5.63965Z" fill="#FF9900"/>
<path d="M12.4749 5.63965H13.7549V9.28125H12.4749V5.63965Z" fill="#FF9900"/>
<path d="M28.5452 32.7188H29.8252V36.3604H28.5452V32.7188Z" fill="#FF9900"/>
<path d="M24.5325 32.7188H25.8125V36.3604H24.5325V32.7188Z" fill="#FF9900"/>
<path d="M20.5139 32.7188H21.7939V36.3604H20.5139V32.7188Z" fill="#FF9900"/>
<path d="M16.4944 32.7188H17.7744V36.3604H16.4944V32.7188Z" fill="#FF9900"/>
<path d="M12.4749 32.7188H13.7549V36.3604H12.4749V32.7188Z" fill="#FF9900"/>
<path d="M5.63965 12.3281H9.28125V13.6081H5.63965V12.3281Z" fill="#FF9900"/>
<path d="M5.63965 16.3408H9.28125V17.6208H5.63965V16.3408Z" fill="#FF9900"/>
<path d="M5.63965 20.3604H9.28125V21.6404H5.63965V20.3604Z" fill="#FF9900"/>
<path d="M5.63965 24.3789H9.28125V25.6589H5.63965V24.3789Z" fill="#FF9900"/>
<path d="M5.63965 28.3916H9.28125V29.6716H5.63965V28.3916Z" fill="#FF9900"/>
<path d="M32.7188 12.3281H36.3604V13.6081H32.7188V12.3281Z" fill="#FF9900"/>
<path d="M32.7188 16.3408H36.3604V17.6208H32.7188V16.3408Z" fill="#FF9900"/>
<path d="M32.7188 20.3604H36.3604V21.6404H32.7188V20.3604Z" fill="#FF9900"/>
<path d="M32.7188 24.3789H36.3604V25.6589H32.7188V24.3789Z" fill="#FF9900"/>
<path d="M32.7188 28.3916H36.3604V29.6716H32.7188V28.3916Z" fill="#FF9900"/>
</g>
<defs>
<clipPath id="clip0_1601_309819">
<rect width="32" height="32" fill="white" transform="matrix(-1 0 0 1 37 5)"/>
</clipPath>
</defs>
</svg>
