<svg width="64" height="64" viewBox="0 0 64 64" fill="none" xmlns="http://www.w3.org/2000/svg">
<g clip-path="url(#clip0_5666_39696)">
<path d="M47.4575 46.5896C47.865 43.1971 47.7425 42.7021 50.2675 43.2496L50.91 43.3071C52.8525 43.3946 55.3925 42.9946 56.91 42.3021C60.1225 40.8121 62.0275 38.3221 58.86 38.9771C51.635 40.4671 51.11 38.0196 51.11 38.0196C58.7425 26.6946 61.935 12.3196 59.1775 8.80211C51.6675 -0.797889 38.665 3.74211 38.4475 3.86211L38.3775 3.87461C36.9525 3.57461 35.3775 3.39961 33.5525 3.37461C30.2825 3.32461 27.8025 4.23211 25.9175 5.65961C25.9175 5.65961 2.72503 -3.89539 3.80253 17.6771C4.03253 22.2671 10.3775 52.4271 17.9525 43.3021C20.725 39.9671 23.4 37.1496 23.4 37.1496C24.725 38.0321 26.3175 38.4821 27.985 38.3196L28.115 38.2096C28.0766 38.6417 28.0942 39.077 28.1675 39.5046C26.2175 41.6846 26.7925 42.0671 22.8925 42.8696C18.9475 43.6821 21.2675 45.1296 22.7775 45.5096C24.6125 45.9696 28.8575 46.6196 31.7275 42.6046L31.6125 43.0621C32.3775 43.6746 32.325 47.4621 32.4375 50.1671C32.55 52.8721 32.7275 55.3996 33.28 56.8871C33.8325 58.3746 34.48 62.2121 39.605 61.1371C43.8875 60.2196 47.1625 58.8971 47.4625 46.6121" fill="black"/>
<path d="M47.4575 46.5896C47.865 43.1971 47.7425 42.7021 50.2675 43.2496L50.91 43.3071C52.8525 43.3946 55.3925 42.9946 56.91 42.3021C60.1225 40.8121 62.0275 38.3221 58.86 38.9771C51.635 40.4671 51.11 38.0196 51.11 38.0196C58.7425 26.6946 61.935 12.3196 59.1775 8.80211C51.6675 -0.797889 38.665 3.74211 38.4475 3.86211L38.3775 3.87461C36.9525 3.57461 35.3775 3.39961 33.5525 3.37461C30.2825 3.32461 27.8025 4.23211 25.9175 5.65961C25.9175 5.65961 2.72503 -3.89539 3.80253 17.6771C4.03253 22.2671 10.3775 52.4271 17.9525 43.3021C20.725 39.9671 23.4 37.1496 23.4 37.1496C24.725 38.0321 26.3175 38.4821 27.985 38.3196L28.115 38.2096C28.0766 38.6417 28.0942 39.077 28.1675 39.5046C26.2175 41.6846 26.7925 42.0671 22.8925 42.8696C18.9475 43.6821 21.2675 45.1296 22.7775 45.5096C24.6125 45.9696 28.8575 46.6196 31.7275 42.6046L31.6125 43.0621C32.3775 43.6746 32.325 47.4621 32.4375 50.1671C32.55 52.8721 32.7275 55.3996 33.28 56.8871C33.8325 58.3746 34.48 62.2121 39.605 61.1371C43.8875 60.2196 47.1625 58.8971 47.4625 46.6121" stroke="black" stroke-width="5.3725"/>
<path d="M58.8375 38.9996C51.6125 40.4896 51.0875 38.0421 51.0875 38.0421C58.72 26.7171 61.9125 12.3421 59.1575 8.82459C51.6475 -0.775408 38.645 3.76709 38.4275 3.88459L38.3575 3.89709C36.7694 3.57843 35.1547 3.41019 33.535 3.39459C30.265 3.34459 27.785 4.25209 25.9 5.67959C25.9 5.67959 2.70499 -3.87541 3.78499 17.6971C4.01499 22.2871 10.36 52.4471 17.935 43.3221C20.725 39.9671 23.4 37.1496 23.4 37.1496C24.725 38.0321 26.3175 38.4821 27.985 38.3196L28.115 38.2096C28.0768 38.6417 28.0944 39.077 28.1675 39.5046C26.2175 41.6846 26.7925 42.0671 22.8925 42.8696C18.9475 43.6821 21.2675 45.1296 22.7775 45.5096C24.6125 45.9696 28.8575 46.6196 31.7275 42.6046L31.6125 43.0621C32.3775 43.6746 32.9125 47.0446 32.8225 50.0996C32.7325 53.1546 32.6725 55.2496 33.2725 56.8896C33.8725 58.5296 34.4725 62.2146 39.5975 61.1396C43.88 60.2221 46.0975 57.8396 46.41 53.8746C46.63 51.0546 47.125 51.4696 47.16 48.9496L47.56 47.7546C48.0175 43.9296 47.635 42.6971 50.2725 43.2721L50.915 43.3296C52.8575 43.4171 55.4 43.0171 56.89 42.3246C60.1025 40.8346 62.005 38.3446 58.8375 38.9996Z" fill="#336791"/>
<path d="M32.035 41.1674C31.835 48.2824 32.085 55.4474 32.78 57.1674C33.475 58.8874 34.9675 62.2924 40.095 61.1974C44.3775 60.2799 45.9375 58.5024 46.6125 54.5799L48.195 42.0374M25.89 5.49991C25.89 5.49991 2.68 -3.99009 3.76 17.5824C3.99 22.1724 10.335 52.3324 17.91 43.2074C20.675 39.8749 23.175 37.2674 23.175 37.2674M38.425 3.76741C37.625 4.01741 51.335 -1.24509 59.13 8.71241C61.88 12.2299 58.6925 26.6049 51.06 37.9299" stroke="white" stroke-width="1.79" stroke-linecap="round" stroke-linejoin="round"/>
<path d="M51.0625 37.9247C51.0625 37.9247 51.5625 40.3747 58.8125 38.8797C61.98 38.2247 60.0725 40.7147 56.8625 42.2047C54.2275 43.4297 48.3175 43.7422 48.22 42.0547C47.97 37.6922 51.33 39.0172 51.0875 37.9247C50.8675 36.9397 49.3625 35.9747 48.3725 33.5647C47.505 31.4647 36.4725 15.3397 51.4325 17.7322C51.9825 17.6197 47.5325 3.48219 33.5325 3.27719C19.5325 3.07219 19.975 20.4897 19.975 20.4897" stroke="white" stroke-width="1.79" stroke-linecap="round" stroke-linejoin="bevel"/>
<path d="M28.1175 39.4197C26.1675 41.5997 26.7425 41.9822 22.8425 42.7847C18.8975 43.5972 21.2175 45.0447 22.7275 45.4247C24.5625 45.8847 28.8075 46.5347 31.6775 42.5172C32.5525 41.2922 31.6725 39.3422 30.4725 38.8472C29.8925 38.6072 29.1175 38.3072 28.1225 39.4222L28.1175 39.4197Z" stroke="white" stroke-width="1.79" stroke-linejoin="round"/>
<path d="M27.99 39.3825C27.79 38.1 28.41 36.5775 29.0725 34.7925C30.0675 32.1175 32.3625 29.4425 30.5275 20.95C29.16 14.625 19.9775 19.6325 19.9775 20.49C19.9775 21.3475 20.3925 24.84 19.8275 28.9025C19.085 34.2075 23.2025 38.6925 27.9425 38.235" stroke="white" stroke-width="1.79" stroke-linecap="round" stroke-linejoin="round"/>
<path d="M25.805 20.3622C25.7625 20.6547 26.3425 21.4372 27.095 21.5422C27.8475 21.6472 28.49 21.0372 28.5325 20.7422C28.575 20.4472 27.995 20.1272 27.2425 20.0222C26.49 19.9172 25.8425 20.0722 25.805 20.3622Z" fill="white" stroke="white" stroke-width="0.5975"/>
<path d="M48.715 19.7645C48.755 20.057 48.1775 20.8395 47.425 20.9445C46.6725 21.0495 46.025 20.4395 45.9875 20.1445C45.95 19.8495 46.525 19.5295 47.2775 19.4245C48.03 19.3195 48.6775 19.4745 48.715 19.7645Z" fill="white" stroke="white" stroke-width="0.2975"/>
<path d="M51.405 17.7373C51.53 20.0373 50.91 21.5998 50.83 24.0473C50.715 27.6023 52.525 31.6723 49.7975 35.7473" stroke="white" stroke-width="1.79" stroke-linecap="round" stroke-linejoin="round"/>
</g>
<defs>
<clipPath id="clip0_5666_39696">
<rect width="64" height="64" fill="white"/>
</clipPath>
</defs>
</svg>
