<svg width="800" height="800" viewBox="0 0 800 800" fill="none" xmlns="http://www.w3.org/2000/svg">
<g clip-path="url(#clip0_7007_59257)">
<path d="M86.8894 417.092V416.524V329.754H105.919V423.767C106.804 431.344 106.153 439.021 104.006 446.341C101.858 453.66 98.259 460.473 93.4221 466.371C84.4324 474.125 72.9138 478.319 61.0429 478.158L59.0547 463.957C66.7117 463.961 74.0987 461.128 79.7887 456.004C84.9013 450.04 86.8894 441.945 86.8894 417.092ZM228.809 405.891C228.809 416.542 228.809 426.057 229.661 434.293H212.762L211.626 417.394C208.091 423.373 203.036 428.31 196.974 431.702C190.913 435.095 184.061 436.822 177.116 436.708C160.642 436.708 141.044 427.761 141.044 391.263V330.623H160.074V387.429C160.074 407.169 166.181 420.376 183.365 420.376C186.9 420.414 190.407 419.746 193.681 418.41C196.955 417.075 199.929 415.099 202.429 412.599C204.929 410.099 206.904 407.125 208.24 403.852C209.575 400.578 210.243 397.071 210.205 393.535V329.913H229.235V405.323L228.809 405.891ZM264.881 364.41C264.881 351.203 264.881 340.41 264.029 330.611H281.071L281.923 348.362C285.72 341.949 291.186 336.686 297.738 333.135C304.291 329.583 311.684 327.876 319.131 328.196C344.409 328.196 363.439 349.356 363.439 380.884C363.439 418.091 340.575 436.553 315.864 436.553C309.54 436.835 303.249 435.481 297.602 432.619C291.954 429.758 287.141 425.488 283.627 420.222V477.027H264.881V364.836V364.41ZM283.627 392.103C283.679 394.68 283.964 397.246 284.479 399.772C286.09 406.077 289.758 411.666 294.903 415.652C300.047 419.639 306.374 421.797 312.882 421.784C332.906 421.784 344.693 405.452 344.693 381.736C344.693 361.002 333.616 343.25 313.592 343.25C305.668 343.899 298.252 347.416 292.736 353.141C287.22 358.867 283.981 366.408 283.627 374.351V392.103ZM397.345 330.516L420.209 391.724C422.623 398.541 425.179 406.778 426.884 412.884C428.872 406.636 431.002 398.683 433.558 391.298L454.292 330.516H474.316L445.913 404.363C431.712 439.867 423.049 458.187 409.984 469.264C403.403 475.275 395.38 479.482 386.693 481.477L382.007 465.572C388.081 463.576 393.719 460.443 398.623 456.341C405.551 450.695 411.049 443.494 414.67 435.323C415.445 433.908 415.974 432.371 416.232 430.778C416.071 429.064 415.64 427.387 414.954 425.808L376.326 330.232H397.06L397.345 330.516ZM524.835 300.722V330.545H552.102V344.747H524.835V400.7C524.835 413.481 528.528 420.866 539.037 420.866C542.769 420.927 546.493 420.497 550.114 419.588L550.966 433.789C545.537 435.67 539.809 436.537 534.066 436.346C530.263 436.584 526.454 435.996 522.9 434.623C519.345 433.251 516.13 431.125 513.474 428.393C507.69 420.656 505.051 411.015 506.09 401.41V344.605H489.9V330.403H506.373V305.125L524.835 300.722ZM587.158 385.727C586.772 390.543 587.437 395.385 589.106 399.92C590.776 404.454 593.41 408.571 596.826 411.988C600.243 415.404 604.36 418.038 608.894 419.708C613.429 421.377 618.271 422.042 623.087 421.656C632.829 421.874 642.507 420.035 651.49 416.26L654.756 430.461C643.733 435.002 631.88 437.179 619.963 436.852C613.016 437.327 606.048 436.295 599.537 433.824C593.026 431.354 587.127 427.505 582.243 422.541C577.36 417.576 573.608 411.614 571.245 405.064C568.882 398.513 567.964 391.529 568.554 384.591C568.554 353.348 587.158 328.637 617.549 328.637C651.632 328.637 660.153 358.46 660.153 377.49C660.335 380.422 660.335 383.363 660.153 386.295H586.732L587.158 385.727ZM642.827 371.525C643.375 367.728 643.103 363.858 642.029 360.176C640.955 356.493 639.104 353.083 636.601 350.176C634.098 347.269 631.001 344.933 627.518 343.324C624.036 341.715 620.249 340.872 616.413 340.85C608.61 341.415 601.299 344.874 595.914 350.548C590.528 356.222 587.456 363.704 587.3 371.525H642.827ZM689.027 362.809C689.027 350.596 689.027 340.087 688.175 330.43H705.217V350.738H706.069C707.857 344.47 711.553 338.915 716.643 334.843C721.733 330.771 727.964 328.385 734.471 328.016C736.263 327.781 738.077 327.781 739.868 328.016V345.768C737.698 345.516 735.506 345.516 733.335 345.768C726.889 346.017 720.753 348.605 716.075 353.048C711.397 357.491 708.496 363.485 707.915 369.91C707.384 372.816 707.099 375.761 707.063 378.715V433.958H688.317V362.951L689.027 362.809Z" fill="white"/>
<path d="M680.688 45.2324C681.271 54.773 679.001 64.2712 674.167 72.5171C669.333 80.7631 662.154 87.3834 653.544 91.5349C644.934 95.6862 635.284 97.1807 625.822 95.828C616.359 94.4752 607.514 90.3365 600.412 83.9389C593.311 77.5414 588.274 69.1747 585.944 59.9045C583.614 50.6344 584.097 40.8805 587.33 31.8856C590.563 22.8906 596.401 15.0616 604.099 9.39592C611.797 3.73026 621.008 0.484419 630.557 0.0718677C636.818 -0.272659 643.086 0.623926 648.999 2.71007C654.912 4.7962 660.355 8.03074 665.013 12.2277C669.672 16.4246 673.456 21.5011 676.146 27.1653C678.836 32.8294 680.379 38.9696 680.688 45.2324Z" fill="#767677"/>
<path d="M399.874 601.442C272.062 601.442 159.728 555.572 101.645 487.831C124.181 548.772 164.846 601.345 218.166 638.476C271.485 675.607 334.901 695.511 399.874 695.511C464.848 695.511 528.263 675.607 581.583 638.476C634.902 601.345 675.567 548.772 698.104 487.831C640.163 555.572 528.255 601.442 399.874 601.442Z" fill="#F37726"/>
<path d="M399.874 160.945C527.687 160.945 640.021 206.815 698.104 274.556C675.567 213.616 634.902 161.042 581.583 123.911C528.263 86.7808 464.848 66.876 399.874 66.876C334.901 66.876 271.485 86.7808 218.166 123.911C164.846 161.042 124.181 213.616 101.645 274.556C159.728 206.674 271.494 160.945 399.874 160.945Z" fill="#F37726"/>
<path d="M223.924 733.267C224.674 745.284 221.829 757.253 215.752 767.647C209.676 778.042 200.642 786.392 189.803 791.634C178.963 796.876 166.809 798.773 154.888 797.082C142.966 795.391 131.818 790.19 122.864 782.141C113.909 774.092 107.553 763.56 104.606 751.886C101.659 740.211 102.254 727.924 106.315 716.589C110.376 705.254 117.72 695.385 127.41 688.239C137.101 681.092 148.699 676.993 160.728 676.462C168.608 676.04 176.493 677.175 183.934 679.802C191.375 682.429 198.226 686.497 204.095 691.772C209.963 697.047 214.735 703.427 218.138 710.547C221.54 717.667 223.506 725.387 223.924 733.267Z" fill="#9E9E9E"/>
<path d="M116.17 145.507C109.283 145.697 102.493 143.846 96.655 140.188C90.8169 136.53 86.1908 131.227 83.3584 124.947C80.526 118.666 79.6138 111.689 80.7366 104.891C81.8594 98.0935 84.967 91.7797 89.6686 86.7437C94.3702 81.7077 100.456 78.1743 107.16 76.5878C113.865 75.0013 120.889 75.4326 127.349 77.8274C133.809 80.2223 139.416 84.4737 143.466 90.0472C147.517 95.6206 149.828 102.267 150.111 109.151C150.38 118.459 146.967 127.498 140.612 134.304C134.258 141.111 125.474 145.137 116.17 145.507Z" fill="#616262"/>
</g>
<defs>
<clipPath id="clip0_7007_59257">
<rect width="800" height="800" fill="white"/>
</clipPath>
</defs>
</svg>
