<svg width="42" height="42" viewBox="0 0 42 42" fill="none" xmlns="http://www.w3.org/2000/svg">
<rect x="2" y="2" width="38" height="38" rx="19" fill="#2F7DF7"/>
<path d="M22.045 27.3775C22.2089 27.5415 22.301 27.7638 22.301 27.9957C22.301 28.2275 22.2089 28.4499 22.045 28.6139L20.9581 29.7071C19.8087 30.8556 18.2501 31.5005 16.6251 31.5C15.0001 31.4995 13.4419 30.8536 12.2932 29.7044C11.1445 28.5552 10.4995 26.9969 10.5 25.3722C10.5005 23.7475 11.1465 22.1895 12.2959 21.0411L14.9333 18.4042C16.0373 17.2995 17.5218 16.6584 19.0831 16.612C20.6444 16.5657 22.1643 17.1176 23.332 18.1549C23.4181 18.2313 23.4884 18.3239 23.5387 18.4274C23.5891 18.531 23.6186 18.6434 23.6255 18.7583C23.6324 18.8732 23.6166 18.9884 23.579 19.0972C23.5414 19.206 23.4827 19.3063 23.4063 19.3925C23.3299 19.4786 23.2373 19.5489 23.1338 19.5992C23.0302 19.6496 22.9178 19.679 22.8028 19.6859C22.6879 19.6928 22.5727 19.677 22.4639 19.6394C22.3551 19.6018 22.2547 19.5432 22.1685 19.4668C21.3346 18.7264 20.2492 18.3324 19.1344 18.3656C18.0196 18.3987 16.9596 18.8564 16.1711 19.645L13.5337 22.2786C12.7133 23.0989 12.2524 24.2114 12.2524 25.3714C12.2524 26.5314 12.7133 27.6439 13.5337 28.4641C14.3541 29.2844 15.4668 29.7452 16.627 29.7452C17.7872 29.7452 18.8999 29.2844 19.7203 28.4641L20.8072 27.3775C20.8885 27.2961 20.9849 27.2316 21.0911 27.1876C21.1973 27.1436 21.3111 27.1209 21.4261 27.1209C21.5411 27.1209 21.6549 27.1436 21.7611 27.1876C21.8673 27.2316 21.9637 27.2961 22.045 27.3775ZM29.7078 12.2908C28.5582 11.144 27.0006 10.5 25.3767 10.5C23.7528 10.5 22.1952 11.144 21.0456 12.2908L19.9587 13.3786C19.7947 13.5427 19.7026 13.7652 19.7027 13.9972C19.7028 14.2292 19.7951 14.4516 19.9593 14.6156C20.1234 14.7795 20.346 14.8716 20.578 14.8715C20.81 14.8714 21.0325 14.7791 21.1965 14.615L22.2833 13.5284C23.1037 12.7081 24.2164 12.2473 25.3767 12.2473C26.5369 12.2473 27.6496 12.7081 28.47 13.5284C29.2904 14.3486 29.7513 15.4611 29.7513 16.6211C29.7513 17.7811 29.2904 18.8936 28.47 19.7139L25.8326 22.3529C25.0437 23.1411 23.9834 23.5982 22.8686 23.6307C21.7538 23.6633 20.6687 23.2687 19.8352 22.5279C19.6612 22.3736 19.433 22.2948 19.2009 22.3087C18.9687 22.3227 18.7517 22.4282 18.5974 22.6022C18.4431 22.7762 18.3643 23.0043 18.3782 23.2364C18.3922 23.4685 18.4977 23.6855 18.6717 23.8397C19.8391 24.8773 21.3589 25.4296 22.9201 25.3837C24.4814 25.3378 25.9661 24.6971 27.0704 23.5927L29.7078 20.9558C30.8554 19.8063 31.5 18.2486 31.5 16.6244C31.5 15.0002 30.8554 13.4425 29.7078 12.293V12.2908Z" fill="white"/>
</svg>
