<svg width="64" height="64" viewBox="0 0 64 64" fill="none" xmlns="http://www.w3.org/2000/svg">
<path d="M7.42163 38.0459C10.618 38.0459 13.2092 35.4547 13.2092 32.2583C13.2092 29.0619 10.618 26.4707 7.42163 26.4707C4.22523 26.4707 1.63403 29.0619 1.63403 32.2583C1.63403 35.4547 4.22523 38.0459 7.42163 38.0459Z" fill="#FF6309"/>
<path d="M48.9218 61.999C52.1182 61.999 54.7094 59.4078 54.7094 56.2114C54.7094 53.015 52.1182 50.4238 48.9218 50.4238C45.7254 50.4238 43.1342 53.015 43.1342 56.2114C43.1342 59.4078 45.7254 61.999 48.9218 61.999Z" fill="#FFB515"/>
<path d="M35.0878 17.9376C42.2943 17.9376 48.2736 23.2888 49.2638 30.2263H59.1795C58.7292 24.7749 56.4691 19.6939 52.6904 15.6869C50.2704 16.9195 47.2947 16.943 44.767 15.484C42.2372 14.0231 40.7695 11.4326 40.6287 8.71769C38.8122 8.29452 36.953 8.08124 35.0878 8.08203C31.4696 8.08203 27.9732 8.8718 24.7934 10.3694L29.7576 18.9677C31.4519 18.2858 33.2614 17.9362 35.0878 17.9376Z" fill="#FF6309"/>
<path d="M49.2644 34.2852C48.2767 41.2254 42.2962 46.5797 35.0878 46.5797C33.2607 46.5814 31.4504 46.2313 29.7557 45.5484L24.7908 54.1472C27.9701 55.6455 31.4677 56.4358 35.0871 56.4358C36.9538 56.4361 38.8144 56.2225 40.6325 55.7991C40.7707 53.0809 42.2391 50.486 44.7708 49.0244C47.2993 47.5642 50.276 47.5878 52.6968 48.8228C56.4721 44.815 58.7299 39.7347 59.1788 34.2852H49.2644Z" fill="#C90016"/>
<path d="M20.7672 32.2588C20.7672 27.6961 22.9117 23.6257 26.2453 21.0014L21.2823 12.4043C20.1068 13.2259 19.0056 14.149 17.9914 15.1631C15.1191 18.0352 13.0594 21.5032 11.9259 25.2882C14.2095 26.7674 15.7219 29.3351 15.7219 32.2588C15.7219 35.1817 14.2095 37.7502 11.9259 39.2288C13.0596 43.0139 15.1191 46.4817 17.9914 49.3538C19.0048 50.3676 20.1051 51.2905 21.2797 52.112L26.2435 43.5143C22.9105 40.8901 20.7672 36.8197 20.7672 32.2588Z" fill="#FFB515"/>
<path d="M48.9168 14.083C52.1132 14.083 54.7044 11.4918 54.7044 8.29541C54.7044 5.09901 52.1132 2.50781 48.9168 2.50781C45.7204 2.50781 43.1292 5.09901 43.1292 8.29541C43.1292 11.4918 45.7204 14.083 48.9168 14.083Z" fill="#C90016"/>
</svg>
